<svg width="44" height="30" viewBox="0 0 44 30" fill="none" xmlns="http://www.w3.org/2000/svg">
<g clip-path="url(#clip0_6946_59681)">
<path d="M0 3.66667C0 1.64162 1.64162 0 3.66667 0H40.3333C42.3584 0 44 1.64162 44 3.66667V25.6667C44 27.6917 42.3584 29.3333 40.3333 29.3333H3.66667C1.64162 29.3333 0 27.6917 0 25.6667V3.66667Z" fill="#252260"/>
<path d="M26.1986 14.6486C26.2019 13.8605 25.9064 13.0713 25.3118 12.4765C24.7158 11.8806 23.9246 11.5853 23.1349 11.5901C23.1312 11.5901 23.1275 11.5898 23.1236 11.5898C21.4087 11.5898 20.0485 12.9498 20.0485 14.6651C20.0485 16.3635 21.4255 17.7401 23.1236 17.7401C24.8389 17.7401 26.199 16.3799 26.199 14.6651C26.199 14.6595 26.1986 14.6541 26.1986 14.6486Z" fill="#F26E21"/>
<path d="M19.4767 15.9666C19.0171 16.4267 18.5928 16.6065 18.1359 16.6162C17.0228 16.6062 16.2043 15.7818 16.2043 14.6065C16.2043 14.0149 16.4283 13.53 16.7832 13.1157C17.116 12.7998 17.5447 12.5957 18.0377 12.5957C18.5699 12.5957 18.984 12.7731 19.4568 13.2462V11.886C18.9841 11.6496 18.5698 11.5312 18.0377 11.5312C17.2859 11.585 16.5771 11.8887 16.0334 12.3657C15.8767 12.5067 15.7266 12.6623 15.5992 12.8405C15.2021 13.3552 14.962 13.9855 14.962 14.6659C14.962 16.3806 16.3227 17.6817 18.0376 17.6817C18.046 17.6817 18.0542 17.6809 18.0623 17.6809C18.0738 17.681 18.0852 17.6817 18.0967 17.6817C18.5697 17.6817 18.984 17.5637 19.5162 17.3271L19.4767 15.9666C19.4567 15.9865 19.4965 16.0051 19.4767 16.024V15.9666Z" fill="white"/>
<path d="M30.0813 12.3763L28.742 15.6691L27.2043 11.7656H25.9625L28.3871 17.7387H29.0376L31.5806 11.7656H30.3389L30.0813 12.3763Z" fill="white"/>
<path d="M32.054 14.3678V17.5616H35.2476H35.3065V16.615H34.3012H33.2367V15.5508V15.0187H35.2476V14.013H33.2367V12.7712H35.3065V11.7656H32.054V14.3678Z" fill="white"/>
<path d="M5.32284 11.7656H3.66663V17.5616H5.32276C6.20971 17.5616 6.86014 17.3248 7.39239 16.9108C8.04282 16.3786 8.45698 15.5508 8.45698 14.6639C8.45706 12.9484 7.21492 11.7656 5.32284 11.7656ZM6.68291 16.1422C6.32805 16.4378 5.85493 16.615 5.1452 16.615H4.79034V12.7711H5.08599C5.79572 12.7711 6.26884 12.8893 6.62378 13.244C7.03769 13.5987 7.27438 14.1312 7.27438 14.6637C7.33351 15.1959 7.09699 15.787 6.68291 16.1422Z" fill="white"/>
<path d="M10.1133 11.7656H8.98962V17.5614H10.1133V11.7656Z" fill="white"/>
<path d="M12.9517 14.0171C12.2422 13.7806 12.0645 13.603 12.0645 13.3074C12.0645 12.9526 12.4194 12.6569 12.8925 12.6569C13.2474 12.6569 13.543 12.7753 13.8387 13.1301L14.4303 12.3614C13.957 11.9472 13.3659 11.7109 12.7153 11.7109C11.7097 11.7109 10.8817 12.4207 10.8817 13.3666C10.8817 14.1947 11.2369 14.5495 12.3012 14.9635C12.7743 15.1406 12.9518 15.2 13.0703 15.3183C13.3064 15.4364 13.4249 15.6731 13.4249 15.9094C13.4249 16.3826 13.0703 16.7376 12.5377 16.7376C12.005 16.7376 11.5323 16.4419 11.2957 15.9687L10.5859 16.6784C11.1184 17.4472 11.7689 17.802 12.5969 17.802C13.7796 17.802 14.6072 17.0332 14.6072 15.9094C14.6074 14.9043 14.2528 14.4903 12.9517 14.0171Z" fill="white"/>
<path d="M38.5003 15.1365C39.3871 14.9594 39.8604 14.3678 39.8604 13.4809C39.8604 12.4165 39.0915 11.7656 37.7906 11.7656H36.0754V17.5616H37.1991V15.2549H37.3767L38.9731 17.5616H40.3335L38.5003 15.1365ZM37.5538 14.4268H37.1992V12.6528H37.5538C38.2635 12.6528 38.6777 12.9484 38.6777 13.5402C38.6777 14.1313 38.2636 14.4268 37.5538 14.4268Z" fill="white"/>
</g>
<defs>
<clipPath id="clip0_6946_59681">
<rect width="44" height="29.3333" fill="white"/>
</clipPath>
</defs>
</svg>
