<?xml version="1.0" encoding="UTF-8"?>
<svg xmlns="http://www.w3.org/2000/svg" xmlns:xlink="http://www.w3.org/1999/xlink" width="59px" height="38px" viewBox="0 0 59 38" version="1.1">
<g id="surface1">
<path style=" stroke:none;fill-rule:nonzero;fill:rgb(0%,0%,0%);fill-opacity:1;" d="M 3.152344 0 L 55.960938 0 C 57.703125 0 59.113281 1.441406 59.113281 3.222656 L 59.113281 34.738281 C 59.113281 36.519531 57.703125 37.960938 55.960938 37.960938 L 3.152344 37.960938 C 1.410156 37.960938 0 36.519531 0 34.738281 L 0 3.222656 C 0 1.441406 1.410156 0 3.152344 0 Z M 3.152344 0 "/>
<path style=" stroke:none;fill-rule:nonzero;fill:rgb(100%,94.509804%,0%);fill-opacity:1;" d="M 12.652344 13.785156 C 13.164062 13.613281 13.71875 13.519531 14.292969 13.519531 C 16.804688 13.519531 18.898438 15.3125 19.375 17.691406 L 22.929688 16.964844 C 22.113281 12.921875 18.558594 9.871094 14.292969 9.871094 C 13.316406 9.871094 12.378906 10.03125 11.5 10.328125 Z M 12.652344 13.785156 "/>
<path style=" stroke:none;fill-rule:nonzero;fill:rgb(0%,63.921569%,87.45098%);fill-opacity:1;" d="M 8.453125 25.367188 L 10.859375 22.632812 C 9.785156 21.675781 9.109375 20.285156 9.109375 18.726562 C 9.109375 17.175781 9.785156 15.777344 10.859375 14.828125 L 8.453125 12.097656 C 6.628906 13.726562 5.480469 16.089844 5.480469 18.734375 C 5.480469 21.371094 6.628906 23.742188 8.453125 25.367188 Z M 8.453125 25.367188 "/>
<path style=" stroke:none;fill-rule:nonzero;fill:rgb(93.333333%,25.098039%,13.72549%);fill-opacity:1;" d="M 19.375 19.773438 C 18.890625 22.152344 16.804688 23.941406 14.292969 23.941406 C 13.71875 23.941406 13.164062 23.847656 12.644531 23.675781 L 11.492188 27.132812 C 12.371094 27.429688 13.316406 27.589844 14.292969 27.589844 C 18.558594 27.589844 22.113281 24.546875 22.929688 20.503906 Z M 19.375 19.773438 "/>
<path style=" stroke:none;fill-rule:nonzero;fill:rgb(100%,100%,100%);fill-opacity:1;" d="M 34.777344 22.222656 C 34.1875 22.800781 33.390625 23.148438 32.515625 23.132812 C 31.910156 23.125 31.347656 22.945312 30.878906 22.640625 L 29.699219 24.523438 C 30.507812 25.035156 31.457031 25.339844 32.484375 25.355469 C 33.972656 25.375 35.335938 24.785156 36.328125 23.820312 Z M 32.644531 14.539062 C 29.679688 14.492188 27.226562 16.878906 27.179688 19.859375 C 27.167969 20.976562 27.484375 22.023438 28.050781 22.890625 L 37.792969 18.703125 C 37.25 16.355469 35.160156 14.585938 32.644531 14.539062 M 29.414062 20.285156 C 29.398438 20.164062 29.390625 20.035156 29.390625 19.90625 C 29.421875 18.148438 30.859375 16.742188 32.605469 16.773438 C 33.558594 16.789062 34.40625 17.222656 34.972656 17.90625 Z M 40.859375 12.105469 L 40.859375 22.542969 L 42.65625 23.292969 L 41.804688 25.355469 L 40.019531 24.609375 C 39.617188 24.433594 39.34375 24.167969 39.140625 23.863281 C 38.945312 23.558594 38.792969 23.132812 38.792969 22.570312 L 38.792969 12.105469 Z M 47.355469 16.933594 C 47.671875 16.828125 48.003906 16.773438 48.359375 16.773438 C 49.898438 16.773438 51.167969 17.867188 51.460938 19.320312 L 53.632812 18.871094 C 53.132812 16.402344 50.964844 14.546875 48.359375 14.546875 C 47.765625 14.546875 47.1875 14.644531 46.660156 14.820312 Z M 44.789062 23.992188 L 46.257812 22.328125 C 45.601562 21.742188 45.191406 20.890625 45.191406 19.941406 C 45.191406 18.992188 45.609375 18.140625 46.257812 17.5625 L 44.789062 15.898438 C 43.679688 16.886719 42.976562 18.339844 42.976562 19.949219 C 42.976562 21.5625 43.679688 23.003906 44.789062 23.992188 Z M 51.460938 20.589844 C 51.167969 22.039062 49.890625 23.132812 48.359375 23.132812 C 48.011719 23.132812 47.671875 23.074219 47.355469 22.96875 L 46.652344 25.078125 C 47.1875 25.261719 47.761719 25.359375 48.359375 25.359375 C 50.964844 25.359375 53.132812 23.507812 53.632812 21.035156 Z M 51.460938 20.589844 "/>
</g>
</svg>
