<?xml version="1.0" encoding="UTF-8"?>
<svg xmlns="http://www.w3.org/2000/svg" xmlns:xlink="http://www.w3.org/1999/xlink" width="45px" height="20px" viewBox="0 0 45 20" version="1.1">
<g id="surface1">
<path style=" stroke:none;fill-rule:nonzero;fill:rgb(72.156863%,12.941176%,14.901961%);fill-opacity:1;" d="M 12.351562 0.0078125 L 7.691406 0.0078125 C 5.628906 0.105469 3.945312 0.953125 3.457031 2.699219 C 3.203125 3.609375 3.066406 4.609375 2.867188 5.554688 C 1.859375 10.355469 0.964844 15.289062 0 19.992188 L 36.308594 19.992188 C 39.117188 19.992188 41.042969 19.386719 41.566406 17.113281 C 41.808594 16.058594 42.039062 14.863281 42.269531 13.703125 C 43.171875 9.179688 44.074219 4.65625 45 0.0078125 Z M 12.351562 0.0078125 "/>
<path style=" stroke:none;fill-rule:nonzero;fill:rgb(100%,100%,100%);fill-opacity:1;" d="M 31.085938 11.949219 C 30.582031 12.449219 29.167969 12.59375 29.3125 11.390625 C 29.433594 10.394531 30.5 10.179688 31.65625 10.324219 C 31.570312 10.871094 31.46875 11.5625 31.085938 11.949219 Z M 29.496094 8.050781 C 29.449219 8.328125 29.375 8.578125 29.3125 8.839844 C 29.890625 8.691406 31.6875 8.242188 31.859375 9.027344 C 31.917969 9.289062 31.816406 9.5625 31.746094 9.769531 C 30.121094 9.609375 28.800781 9.886719 28.449219 11.066406 C 28.21875 11.855469 28.476562 12.636719 28.972656 12.851562 C 29.929688 13.269531 31.09375 12.792969 31.496094 12.132812 C 31.453125 12.359375 31.414062 12.589844 31.429688 12.875 L 32.269531 12.875 C 32.277344 12.054688 32.394531 11.386719 32.519531 10.648438 C 32.625 10.019531 32.824219 9.394531 32.792969 8.839844 C 32.71875 7.566406 30.652344 8.019531 29.496094 8.050781 Z M 37.925781 12.34375 C 37.269531 12.355469 36.941406 11.941406 36.925781 11.253906 C 36.902344 10.046875 37.417969 8.707031 38.472656 8.585938 C 38.960938 8.53125 39.316406 8.644531 39.675781 8.769531 C 39.347656 10.125 39.464844 12.308594 37.925781 12.34375 Z M 40.109375 5.964844 C 40.023438 6.714844 39.914062 7.433594 39.769531 8.121094 C 37.371094 7.347656 35.902344 9.148438 35.925781 11.367188 C 35.933594 11.796875 36.003906 12.222656 36.269531 12.527344 C 36.722656 13.050781 38.019531 13.175781 38.675781 12.734375 C 38.804688 12.652344 38.933594 12.496094 39.019531 12.386719 C 39.082031 12.308594 39.179688 12.09375 39.199219 12.15625 C 39.164062 12.390625 39.113281 12.609375 39.109375 12.875 L 39.996094 12.875 C 40.164062 10.375 40.695312 8.238281 41.085938 5.964844 Z M 15.089844 11.972656 C 14.566406 12.535156 13.28125 12.527344 13.179688 11.578125 C 13.136719 11.164062 13.289062 10.730469 13.363281 10.300781 C 13.4375 9.867188 13.492188 9.453125 13.566406 9.074219 C 14.082031 8.429688 15.59375 8.355469 15.75 9.421875 C 15.882812 10.347656 15.523438 11.503906 15.089844 11.972656 Z M 15.863281 8.050781 C 15.035156 7.734375 14.027344 8.113281 13.589844 8.472656 C 13.589844 8.488281 13.578125 8.492188 13.566406 8.492188 C 13.574219 8.488281 13.582031 8.480469 13.589844 8.472656 C 13.589844 8.472656 13.589844 8.472656 13.589844 8.46875 C 13.597656 8.316406 13.648438 8.207031 13.65625 8.050781 L 12.816406 8.050781 C 12.464844 10.429688 12.050781 12.742188 11.613281 15.03125 L 12.589844 15.03125 C 12.730469 14.140625 12.824219 13.199219 13.019531 12.363281 C 13.246094 13.242188 14.703125 13.074219 15.316406 12.734375 C 16.585938 12.035156 17.5625 8.703125 15.863281 8.050781 Z M 20.496094 9.722656 L 18.203125 9.722656 C 18.273438 9.183594 18.75 8.589844 19.496094 8.5625 C 20.203125 8.535156 20.707031 8.828125 20.496094 9.722656 Z M 19.566406 7.960938 C 18.859375 8.015625 18.261719 8.222656 17.839844 8.679688 C 17.320312 9.238281 16.898438 10.472656 17.019531 11.601562 C 17.195312 13.207031 19.15625 13.148438 20.726562 12.757812 C 20.75 12.476562 20.816406 12.238281 20.859375 11.972656 C 20.214844 12.21875 19.09375 12.5625 18.429688 12.132812 C 17.929688 11.808594 17.925781 10.992188 18.089844 10.277344 C 19.140625 10.246094 20.238281 10.25 21.292969 10.277344 C 21.359375 9.773438 21.550781 9.222656 21.382812 8.726562 C 21.164062 8.066406 20.371094 7.898438 19.566406 7.960938 Z M 10.976562 8.050781 C 10.949219 8.054688 10.953125 8.089844 10.953125 8.121094 C 10.738281 9.765625 10.445312 11.332031 10.136719 12.875 L 11.113281 12.875 C 11.347656 11.222656 11.617188 9.601562 11.953125 8.050781 Z M 36.472656 8.074219 C 35.609375 7.636719 34.890625 8.375 34.609375 8.816406 C 34.6875 8.589844 34.695312 8.285156 34.769531 8.050781 L 33.90625 8.050781 C 33.671875 9.707031 33.390625 11.316406 33.0625 12.875 L 34.0625 12.875 C 34.070312 12.234375 34.191406 11.761719 34.292969 11.136719 C 34.5 9.796875 34.808594 8.328125 36.335938 8.769531 C 36.386719 8.542969 36.40625 8.289062 36.472656 8.074219 Z M 25.496094 11.738281 C 25.40625 11.5 25.382812 11.109375 25.40625 10.8125 C 25.457031 10.140625 25.695312 9.324219 26.066406 8.957031 C 26.574219 8.445312 27.582031 8.53125 28.382812 8.816406 C 28.40625 8.542969 28.460938 8.296875 28.496094 8.03125 C 27.179688 7.808594 25.933594 7.945312 25.269531 8.65625 C 24.621094 9.347656 24.195312 10.945312 24.496094 11.949219 C 24.847656 13.121094 26.425781 13.1875 27.699219 12.734375 C 27.757812 12.5 27.789062 12.238281 27.835938 11.992188 C 27.140625 12.363281 25.808594 12.554688 25.496094 11.738281 Z M 24.953125 8.050781 C 24.085938 7.695312 23.402344 8.296875 23.089844 8.863281 C 23.160156 8.613281 23.1875 8.316406 23.246094 8.050781 L 22.382812 8.050781 C 22.171875 9.722656 21.859375 11.292969 21.566406 12.875 L 22.542969 12.875 C 22.679688 11.933594 22.738281 10.667969 23.042969 9.769531 C 23.285156 9.050781 23.921875 8.4375 24.835938 8.769531 C 24.851562 8.507812 24.925781 8.304688 24.953125 8.050781 Z M 9.203125 6.105469 C 9.0625 7.027344 8.90625 7.933594 8.75 8.839844 C 7.738281 8.851562 6.703125 8.890625 5.726562 8.816406 C 5.910156 7.929688 6.042969 6.992188 6.226562 6.105469 L 5.136719 6.105469 C 4.746094 8.367188 4.390625 10.660156 3.953125 12.875 L 5.066406 12.875 C 5.242188 11.738281 5.40625 10.59375 5.636719 9.511719 C 6.585938 9.488281 7.722656 9.449219 8.636719 9.535156 C 8.445312 10.660156 8.21875 11.742188 8.042969 12.875 L 9.15625 12.875 C 9.515625 10.582031 9.894531 8.308594 10.339844 6.105469 Z M 11.976562 7.125 C 12.171875 6.988281 12.421875 6.363281 12.136719 6.105469 C 12.042969 6.023438 11.890625 6 11.679688 6.035156 C 11.484375 6.070312 11.371094 6.136719 11.292969 6.242188 C 11.171875 6.414062 11.058594 6.933594 11.25 7.125 C 11.433594 7.3125 11.851562 7.210938 11.976562 7.125 Z M 11.976562 7.125 "/>
</g>
</svg>
