<?xml version="1.0" encoding="UTF-8"?>
<svg xmlns="http://www.w3.org/2000/svg" xmlns:xlink="http://www.w3.org/1999/xlink" width="40px" height="18px" viewBox="0 0 39 18" version="1.1">
<g id="surface1">
<path style=" stroke:none;fill-rule:nonzero;fill:rgb(15.686275%,30.196078%,54.117647%);fill-opacity:1;" d="M 18.402344 3.945312 C 16.234375 4.167969 14.679688 4.765625 13.675781 5.773438 C 13.1875 6.269531 12.734375 7.121094 12.582031 7.835938 C 12.46875 8.398438 12.460938 9.554688 12.578125 10.121094 C 12.929688 11.945312 14.398438 13.246094 16.695312 13.777344 C 16.917969 13.828125 17.234375 13.902344 17.398438 13.941406 C 17.984375 14.078125 19.914062 14.144531 21.222656 14.070312 C 21.902344 14.035156 22.566406 13.980469 22.699219 13.949219 C 22.832031 13.917969 23.136719 13.859375 23.371094 13.820312 C 24.398438 13.644531 24.671875 13.582031 24.796875 13.519531 C 24.917969 13.453125 24.921875 13.40625 24.921875 12.507812 C 24.921875 11.972656 24.898438 11.550781 24.863281 11.527344 C 24.832031 11.511719 24.644531 11.578125 24.441406 11.679688 C 24.242188 11.777344 24.039062 11.863281 23.996094 11.863281 C 23.953125 11.863281 23.84375 11.902344 23.757812 11.949219 C 23.601562 12.03125 23.246094 12.144531 22.609375 12.316406 C 22.175781 12.433594 20.988281 12.597656 20.574219 12.597656 C 20.152344 12.597656 19.324219 12.445312 18.890625 12.285156 C 17.914062 11.925781 17.261719 11.257812 16.929688 10.285156 C 16.738281 9.71875 16.726562 8.355469 16.910156 7.796875 C 17.414062 6.265625 18.707031 5.445312 20.609375 5.445312 C 21.890625 5.445312 23.300781 5.78125 24.601562 6.40625 C 24.710938 6.453125 24.824219 6.476562 24.855469 6.453125 C 24.898438 6.429688 24.921875 6.074219 24.921875 5.503906 C 24.921875 4.625 24.917969 4.589844 24.789062 4.503906 C 24.648438 4.410156 24.453125 4.367188 23.398438 4.199219 C 23.113281 4.148438 22.816406 4.09375 22.730469 4.074219 C 22.371094 3.988281 20.535156 3.855469 19.878906 3.859375 C 19.488281 3.867188 18.824219 3.902344 18.402344 3.945312 Z M 7.171875 4.203125 C 7.148438 4.222656 7.128906 5.542969 7.128906 7.132812 C 7.128906 10.207031 7.097656 10.59375 6.824219 11.210938 C 6.660156 11.582031 6.167969 12.066406 5.753906 12.261719 C 5.378906 12.4375 4.6875 12.597656 4.285156 12.597656 C 3.527344 12.597656 1.925781 12.253906 1.238281 11.949219 C 1.132812 11.902344 1.019531 11.863281 0.976562 11.863281 C 0.9375 11.863281 0.738281 11.777344 0.535156 11.679688 C 0.328125 11.578125 0.121094 11.511719 0.078125 11.523438 C 0.0195312 11.546875 0 11.773438 0 12.507812 L 0 13.453125 L 0.207031 13.539062 C 0.410156 13.625 0.597656 13.660156 1.796875 13.859375 C 2.828125 14.023438 3.199219 14.058594 4.328125 14.097656 C 5.527344 14.140625 7.082031 14.058594 7.585938 13.9375 C 8.453125 13.730469 8.84375 13.605469 9.203125 13.441406 C 10.226562 12.964844 10.808594 12.324219 11.167969 11.300781 C 11.304688 10.921875 11.304688 10.875 11.304688 7.554688 L 11.304688 4.191406 L 9.257812 4.171875 C 8.136719 4.167969 7.195312 4.179688 7.171875 4.203125 Z M 26.464844 4.203125 C 26.402344 4.226562 26.386719 5.242188 26.386719 8.992188 C 26.386719 13.730469 26.386719 13.753906 26.507812 13.820312 C 26.597656 13.871094 28.050781 13.882812 31.492188 13.863281 C 36.8125 13.839844 36.691406 13.84375 37.46875 13.464844 C 37.867188 13.269531 38.433594 12.734375 38.609375 12.382812 C 39 11.625 38.910156 10.691406 38.378906 10.019531 C 38.007812 9.542969 37.324219 9.175781 36.410156 8.960938 C 36.246094 8.921875 36.113281 8.863281 36.125 8.832031 C 36.128906 8.800781 36.265625 8.746094 36.417969 8.703125 C 37.660156 8.386719 38.382812 7.359375 38.214844 6.148438 C 38.066406 5.109375 37.289062 4.453125 35.921875 4.222656 C 35.601562 4.167969 26.59375 4.148438 26.464844 4.203125 Z M 33.59375 5.726562 C 34.007812 5.941406 34.308594 6.421875 34.308594 6.882812 C 34.308594 7.382812 33.925781 7.925781 33.472656 8.0625 C 33.222656 8.136719 30.425781 8.175781 30.359375 8.105469 C 30.304688 8.054688 30.269531 5.964844 30.316406 5.769531 L 30.347656 5.628906 L 31.875 5.628906 C 33.164062 5.628906 33.429688 5.644531 33.59375 5.726562 Z M 33.867188 9.730469 C 34.453125 9.992188 34.734375 10.59375 34.601562 11.285156 C 34.539062 11.589844 34.484375 11.691406 34.253906 11.925781 C 33.867188 12.3125 33.621094 12.355469 31.832031 12.355469 C 30.492188 12.355469 30.40625 12.347656 30.347656 12.238281 C 30.28125 12.109375 30.261719 9.980469 30.324219 9.738281 L 30.359375 9.601562 L 31.972656 9.601562 C 33.480469 9.601562 33.601562 9.609375 33.867188 9.730469 Z M 33.867188 9.730469 "/>
</g>
</svg>
