<svg width="47" height="30" viewBox="0 0 47 30" fill="none" xmlns="http://www.w3.org/2000/svg">
<path d="M29.9274 3.63281H17.271V26.3688H29.9274V3.63281Z" fill="#FF5A00"/>
<path d="M18.1122 15.0006C18.1122 10.3813 20.284 6.28156 23.6166 3.63261C21.1639 1.70441 18.07 0.539062 14.6953 0.539062C6.7008 0.539062 0.232178 7.00697 0.232178 15.0006C0.232178 22.9942 6.7008 29.4621 14.6953 29.4621C18.07 29.4621 21.1639 28.2968 23.6166 26.3686C20.2793 23.7571 18.1122 19.6199 18.1122 15.0006Z" fill="#EB001B"/>
<path d="M47.0001 15.0006C47.0001 22.9942 40.5315 29.4621 32.537 29.4621C29.1623 29.4621 26.0684 28.2968 23.6157 26.3686C26.9905 23.715 29.1201 19.6199 29.1201 15.0006C29.1201 10.3813 26.9483 6.28156 23.6157 3.63261C26.0637 1.70441 29.1576 0.539062 32.5323 0.539062C40.5315 0.539062 47.0001 7.0491 47.0001 15.0006Z" fill="#F79E1B"/>
</svg>
