<svg xmlns="http://www.w3.org/2000/svg" width="120" height="76" id="payment"><g fill="none" fill-rule="evenodd"><path fill="#F4F4F4" d="M111.999 0H8C3.582 0 0 3.59 0 8.008v59.984C0 72.415 3.591 76 8.001 76H112c4.419 0 8.001-3.59 8.001-8.008V8.008C120 3.585 116.409 0 111.999 0Z"></path><path fill="#22ABBB" d="m93.102 12.313-18.105-.005h-.004l-.042.003c-2.487.085-5.584 2.319-6.149 5.072L60.24 59.795c-.564 2.78.971 5.042 3.44 5.083H82.7c2.432-.134 4.794-2.342 5.349-5.064L96.61 17.4c.573-2.808-.999-5.088-3.509-5.088"></path><path fill="#227FBB" d="m61.538 59.796 8.708-42.408c.574-2.753 3.724-4.987 6.254-5.072l-7.321-.005-13.19-.003c-2.537.057-5.728 2.306-6.302 5.08l-8.71 42.408c-.576 2.78.987 5.04 3.497 5.082h20.563c-2.511-.041-4.072-2.303-3.499-5.082"></path><path fill="#E94B35" d="m41.41 59.796 8.622-42.404c.568-2.773 3.727-5.022 6.239-5.079l-16.728-.005c-2.525 0-5.763 2.274-6.34 5.084l-8.622 42.404a5.868 5.868 0 0 0-.1.761v.787c.17 2.025 1.561 3.5 3.561 3.534h16.83c-2.485-.041-4.033-2.303-3.462-5.082"></path><g fill="#FFF"><path d="M55.013 42.872h.33c.305 0 .51-.125.605-.372l.86-1.574h2.304l-.48 1.035h2.762l-.35 1.586h-3.287c-.379.697-.844 1.024-1.405.985H54.64l.373-1.66Zm-.477 2.385h5.63l-.359 1.407h-2.264l-.346 1.358h2.204l-.36 1.407h-2.203l-.511 2.007c-.127.336.04.487.497.453h1.796l-.333 1.307h-3.448c-.653 0-.878-.401-.673-1.205l.655-2.562h-1.409l.358-1.407h1.409l.345-1.358h-1.346l.358-1.407Zm8.87-4.296-.086.888s1.033-.923 1.972-.923h3.47l-1.327 5.712c-.11.653-.582.977-1.415.977h-3.932l-.922 4.011c-.053.215.022.325.22.325h.775l-.285 1.245H59.91c-.755 0-1.069-.27-.944-.812l2.602-11.423h1.839Zm2.9 1.409h-3.29l-.394 1.443s.548-.414 1.464-.43c.913-.014 1.955 0 1.955 0l.265-1.013Zm-1.23 3.604c.25.023.391-.045.408-.205l.208-.512h-3.399l-.285.717h3.068Zm-2.319 1.448h1.765l-.033 1.01h.47c.237 0 .355-.1.355-.299l.139-.653h1.467l-.196.952c-.166.795-.605 1.21-1.319 1.25h-.94l-.004 1.727c-.017.276.172.417.561.417h.884l-.286 1.368h-2.119c-.594.037-.885-.338-.879-1.132l.135-4.64ZM41.535 33.075c-.24 1.36-.797 2.405-1.66 3.147-.855.73-1.958 1.096-3.309 1.096-1.27 0-2.202-.374-2.797-1.124-.413-.532-.618-1.209-.618-2.027 0-.338.035-.701.105-1.092l1.44-8.027h2.172l-1.419 7.936c-.044.22-.061.424-.059.608-.002.407.085.74.262 1 .257.386.675.578 1.257.578.669 0 1.22-.19 1.647-.57.428-.38.707-.917.833-1.616l1.424-7.936h2.162l-1.44 8.027M51.075 30.1h1.723l-1.35 7.218h-1.72l1.347-7.218m.785-2.887h1.552l-.29 2.165H51.57l.29-2.165M53.458 37.27c-.437-.518-.657-1.217-.66-2.106 0-.151.008-.324.024-.513a6.91 6.91 0 0 1 .065-.55c.198-1.227.62-2.2 1.27-2.918.648-.721 1.43-1.083 2.347-1.083.75 0 1.345.26 1.78.782.436.524.654 1.231.654 2.13 0 .155-.01.333-.026.524-.019.195-.042.38-.07.564-.193 1.208-.613 2.17-1.263 2.876-.65.71-1.43 1.063-2.34 1.063-.753 0-1.346-.255-1.781-.768m3.217-1.599c.308-.372.529-.937.663-1.69a3.631 3.631 0 0 0 .065-.698c0-.437-.1-.777-.3-1.017-.2-.243-.483-.363-.849-.363-.484 0-.878.19-1.187.57-.312.38-.533.956-.672 1.72-.019.118-.034.236-.049.35a2.84 2.84 0 0 0-.012.328c0 .435.1.77.3 1.008.2.237.482.355.853.355.486 0 .88-.188 1.188-.563M70.494 42.664l.415-1.738h2.099l-.09.638s1.072-.638 1.844-.638h2.595l-.412 1.738h-.409l-1.957 8.198h.408L74.6 52.49h-.409l-.17.706h-2.032l.17-.706h-4.01l.39-1.628h.402l1.96-8.198h-.406Zm2.42.428-.469 2.165s.8-.407 1.49-.523c.153-.756.352-1.642.352-1.642h-1.374ZM71.684 46.7l-.467 2.166s.884-.553 1.49-.6c.176-.837.351-1.566.351-1.566h-1.374Zm.999 4.33.375-2.164h-1.464l-.377 2.165h1.466Zm4.673-10.104h2.214l.094.94c-.015.239.109.353.371.353h.391l-.396 1.591h-1.626c-.622.037-.941-.236-.97-.826l-.078-2.058Zm-.251 3.61h6.39l-.374 1.477h-2.035l-.349 1.374h2.033l-.377 1.476H80.13l-.513.864h1.108l.256 1.732c.031.172.168.256.402.256h.344l-.362 1.426h-1.218c-.631.034-.958-.202-.984-.712l-.294-1.581-1.008 1.682c-.239.475-.605.697-1.1.663h-1.86l.362-1.427h.58c.24 0 .438-.118.616-.357l1.578-2.546h-2.034l.377-1.476h2.207l.35-1.374H76.73l.377-1.478ZM43.561 30.279h1.489l-.17 1.016.213-.29c.482-.605 1.068-.905 1.76-.905.626 0 1.078.213 1.361.642.28.429.356 1.021.224 1.782l-.82 4.794h-1.53l.74-4.345c.077-.449.056-.783-.062-1-.116-.215-.338-.321-.659-.321-.393 0-.724.143-.994.429-.27.287-.45.686-.537 1.194l-.682 4.043H42.36l1.2-7.04M61.366 30.279h1.49l-.169 1.016.211-.29c.483-.605 1.071-.905 1.76-.905.627 0 1.08.213 1.361.642.278.429.358 1.021.222 1.782l-.816 4.794h-1.532l.74-4.345c.077-.449.056-.783-.06-1-.122-.215-.34-.321-.659-.321-.393 0-.723.143-.996.429-.271.287-.451.686-.536 1.194l-.685 4.043h-1.53l1.2-7.04M68.987 25.048h4.475c.86 0 1.526.237 1.984.704.455.472.683 1.15.683 2.033v.026c0 .168-.009.358-.022.563-.022.203-.05.408-.087.621-.197 1.169-.655 2.108-1.362 2.82-.71.71-1.55 1.067-2.518 1.067h-2.4l-.742 4.436H66.92l2.067-12.27m1.003 6.135h2.203c.575 0 1.03-.177 1.363-.527.33-.353.547-.892.668-1.624.02-.135.032-.257.046-.37.008-.105.017-.211.017-.314 0-.523-.14-.902-.421-1.14-.281-.24-.722-.356-1.334-.356h-1.87l-.672 4.33M85.445 38.711c-.642 1.621-1.255 2.567-1.614 3.007-.36.434-1.073 1.446-2.79 1.37l.148-1.238c1.445-.529 2.226-2.91 2.672-3.965l-.531-7.767 1.117-.018h.938l.1 4.872 1.758-4.872h1.78l-3.578 8.611M79.993 31.02l-.705.607c-.737-.722-1.41-1.168-2.708-.415-1.77 1.027-3.247 8.9 1.623 6.306l.278.412 1.916.061 1.258-7.153-1.662.182m-.958 3.809c-.336 1.174-1.085 1.95-1.672 1.73-.587-.216-.796-1.35-.457-2.526.336-1.177 1.09-1.951 1.672-1.73.587.216.8 1.348.457 2.526"></path></g></g></svg>