<svg width="255" height="48" viewBox="0 0 255 48" fill="none" xmlns="http://www.w3.org/2000/svg">
<g clip-path="url(#clip0_115_7795)">
<path fill-rule="evenodd" clip-rule="evenodd" d="M241.521 6.62983V0H248.26H248.26L255 6.62983H255V13.2597H248.26V6.62983H241.521ZM244.89 4.97238L245.564 3.9779L246.575 3.31492L245.564 2.65193L244.89 1.65746L244.216 2.65193L243.205 3.31492L244.216 3.9779L244.89 4.97238Z" fill="#017EFF"/>
<path d="M0 5.30383H7.21158L13.884 29.8342H14.221L21.3314 6.6298H27.9027L35.0469 29.8342H35.3839L42.0563 5.30383H49.2679L38.8212 38.685H32.1825L24.7687 16.6077H24.4654L17.0517 38.685H10.4467L0 5.30383Z" fill="#0D1835"/>
<path d="M51.5596 18.4641H58.0972V38.5857H51.5596V18.4641Z" fill="#0D1835"/>
<path d="M62.4102 34.9392L76.7322 18.7624V18.5635H62.8819V13.6575H84.7189V17.6685L71.1045 33.5801V33.779H85.1907V38.6519H62.4102V34.9392Z" fill="#0D1835"/>
<path d="M107.196 13.6574V17.8011H106.792C105.781 15.9779 103.759 13.3259 98.8727 13.3259C92.4699 13.3259 87.415 17.8674 87.415 26.1878C87.415 34.4419 92.3014 39.116 98.839 39.116C103.624 39.116 105.747 36.5635 106.792 34.7403H107.062V48L113.633 41.5359V13.6574H107.196ZM100.659 34.2762C96.3453 34.2762 94.0537 30.8618 94.0537 26.1547C94.0537 21.4806 96.2779 18.1657 100.659 18.1657C104.871 18.1657 107.196 21.3149 107.196 26.1547C107.196 31.0276 104.837 34.2762 100.659 34.2762Z" fill="#0D1835"/>
<path d="M135.976 13.6575H142.513V38.6851H136.178V34.2431H135.875C134.594 37.0608 131.696 39.0166 127.517 39.0166C122.058 39.0166 118.25 35.6022 118.25 29.6022V13.6575H124.788V28.674C124.788 31.8564 126.877 33.8453 130.045 33.8453C132.943 33.8453 135.942 31.9558 135.942 28.1437V13.6575H135.976Z" fill="#0D1835"/>
<path d="M146.018 26.2541C146.018 18.4972 151.174 13.3259 159.329 13.3259C167.45 13.3259 172.64 18.4972 172.64 26.2541C172.64 33.9779 167.484 39.1491 159.329 39.1491C151.174 39.1823 146.018 34.011 146.018 26.2541ZM165.967 26.2541C165.967 21.6795 163.777 18 159.329 18C154.813 18 152.623 21.6795 152.623 26.2541C152.623 30.8287 154.813 34.4419 159.329 34.4419C163.777 34.4419 165.967 30.8287 165.967 26.2541Z" fill="#0D1835"/>
<path d="M187.097 33.8122C186.726 33.8785 185.985 34.0442 185.176 34.0442C183.525 34.0442 182.211 33.5138 182.211 31.1602V18.2321H187.704V13.6575H182.244V7.65747H182.076L175.673 13.9227V32.1216C175.639 36.8287 179.414 39.1492 184.334 39.0166C186.187 38.9834 187.468 38.6519 188.175 38.4199L187.097 33.8122Z" fill="#0D1835"/>
<path d="M189.658 26.3204C189.658 18.5966 194.848 13.3259 202.801 13.3259C209.642 13.3259 215.472 17.1712 215.472 25.9558V27.779H196.128C196.196 32.0552 198.993 34.5745 203.205 34.5745C206.036 34.5745 208.193 33.4806 209.069 31.3591L215.168 31.9889C214.023 36.3314 209.574 39.1823 203.104 39.1823C194.78 39.1823 189.658 34.1768 189.658 26.3204ZM209.204 23.8011C209.17 20.3867 206.642 17.9337 202.868 17.9337C198.959 17.9337 196.331 20.6187 196.162 23.8011H209.204Z" fill="#0D1835"/>
<path d="M234.949 20.8508C234.443 19.1933 232.859 17.7348 229.826 17.7348C227.097 17.7348 225.007 18.895 225.041 20.6187C225.007 22.0773 226.153 22.9392 228.95 23.5027L233.668 24.4309C238.925 25.4585 241.453 27.6464 241.486 31.1933C241.453 35.9337 236.566 39.1823 229.624 39.1823C222.817 39.1823 218.537 36.464 217.729 31.8563L224.098 31.2928C224.671 33.5469 226.625 34.7071 229.624 34.7071C232.725 34.7071 234.78 33.4143 234.78 31.7237C234.78 30.2983 233.601 29.3701 231.04 28.8729L226.322 27.9779C220.997 26.9834 218.504 24.5635 218.504 20.9171C218.47 16.2762 223.053 13.3259 229.725 13.3259C236.229 13.3259 240.004 16.0442 240.88 20.2541L234.949 20.8508Z" fill="#0D1835"/>
<path d="M56.8843 13.127L54.9972 15.9115L53.11 13.127L50.2793 11.2706L53.11 9.41429L54.9972 6.62976L56.8843 9.41429L59.715 11.2706L56.8843 13.127Z" fill="#017EFF"/>
</g>
<defs>
<clipPath id="clip0_115_7795">
<rect width="255" height="48" fill="white"/>
</clipPath>
</defs>
</svg>
