<svg width="258" height="258" viewBox="0 0 258 258" fill="none" xmlns="http://www.w3.org/2000/svg">
<rect x="0.5" y="0.5" width="257" height="257" rx="128.5" fill="#FAFAFA" stroke="#DBDBDB"/>
<path d="M105 105V153H125.571V143.667H132.429V153H153V105H105ZM111.857 110.333H118.714V115.667H111.857V110.333ZM125.571 110.333H132.429V115.667H125.571V110.333ZM139.286 110.333H146.143V115.667H139.286V110.333ZM111.857 121H118.714V126.333H111.857V121ZM125.571 121H132.429V126.333H125.571V121ZM139.286 121H146.143V126.333H139.286V121ZM111.857 131.667H118.714V137H111.857V131.667ZM125.571 131.667H132.429V137H125.571V131.667ZM139.286 131.667H146.143V137H139.286V131.667ZM111.857 142.333H118.714V147.667H111.857V142.333ZM139.286 142.333H146.143V147.667H139.286V142.333Z" fill="#0D1835"/>
</svg>
