<svg width="21" height="24" viewBox="0 0 21 24" fill="none" xmlns="http://www.w3.org/2000/svg">
<path d="M10.5044 24C12.1444 24 13.4563 22.6875 13.4563 21H7.50571C7.50571 22.6875 8.81765 24 10.5044 24ZM20.5783 17.0156C19.6881 16.0312 17.9544 14.5781 17.9544 9.75C17.9544 6.14062 15.4242 3.23438 11.9569 2.48438V1.5C11.9569 0.703125 11.301 0 10.5044 0C9.66105 0 9.00507 0.703125 9.00507 1.5V2.48438C5.53779 3.23438 3.00761 6.14062 3.00761 9.75C3.00761 14.5781 1.27397 16.0312 0.383721 17.0156C0.102589 17.2969 -0.0379761 17.6719 0.00887907 18C0.00887907 18.7969 0.571141 19.5 1.50824 19.5H19.4538C20.3909 19.5 20.9531 18.7969 21 18C21 17.6719 20.8594 17.2969 20.5783 17.0156Z" fill="#0D1835"/>
</svg>
