<svg width="17" height="16" viewBox="0 0 17 16" fill="none" xmlns="http://www.w3.org/2000/svg">
<path d="M0.5 0V16H7.35714V12.8889H9.64286V16H16.5V0H0.5ZM2.78571 1.77778H5.07143V3.55556H2.78571V1.77778ZM7.35714 1.77778H9.64286V3.55556H7.35714V1.77778ZM11.9286 1.77778H14.2143V3.55556H11.9286V1.77778ZM2.78571 5.33333H5.07143V7.11111H2.78571V5.33333ZM7.35714 5.33333H9.64286V7.11111H7.35714V5.33333ZM11.9286 5.33333H14.2143V7.11111H11.9286V5.33333ZM2.78571 8.88889H5.07143V10.6667H2.78571V8.88889ZM7.35714 8.88889H9.64286V10.6667H7.35714V8.88889ZM11.9286 8.88889H14.2143V10.6667H11.9286V8.88889ZM2.78571 12.4444H5.07143V14.2222H2.78571V12.4444ZM11.9286 12.4444H14.2143V14.2222H11.9286V12.4444Z" fill="#0D1835"/>
</svg>
