<svg width="20" height="20" viewBox="0 0 20 20" fill="none" xmlns="http://www.w3.org/2000/svg">
<path fill-rule="evenodd" clip-rule="evenodd" d="M5.33325 3.33204H6.66658C7.03478 3.33204 7.33325 3.63052 7.33325 3.99871C7.33325 4.3406 7.07589 4.62238 6.74433 4.66089L6.66658 4.66537H5.33325C4.99136 4.66537 4.70958 4.92273 4.67107 5.25429L4.66659 5.33204V14.6654C4.66659 15.0073 4.92395 15.289 5.2555 15.3276L5.33325 15.332H14.6666C15.0085 15.332 15.2903 15.0747 15.3288 14.7431L15.3333 14.6654V13.332C15.3333 12.9639 15.6317 12.6654 15.9999 12.6654C16.3418 12.6654 16.6236 12.9227 16.6621 13.2543L16.6666 13.332V14.6654C16.6666 15.7305 15.834 16.6011 14.7841 16.662L14.6666 16.6654H5.33325C4.26813 16.6654 3.39748 15.8328 3.33665 14.7829L3.33325 14.6654V5.33204C3.33325 4.26692 4.16587 3.39627 5.21574 3.33544L5.33325 3.33204H6.66658H5.33325ZM16 3.33203L16.054 3.33403L16.1338 3.34552L16.2081 3.36519L16.2821 3.39448L16.3471 3.42936L16.4112 3.47389L16.4714 3.52729L16.5358 3.60183L16.5836 3.67599L16.6042 3.71663L16.6267 3.77093L16.6428 3.82137L16.6621 3.91997L16.6667 3.9987V7.9987C16.6667 8.36689 16.3682 8.66536 16 8.66536C15.6318 8.66536 15.3333 8.36689 15.3333 7.9987V5.60803L11.1381 9.80344C10.8977 10.0438 10.5196 10.0622 10.2581 9.85889L10.1953 9.80344C9.95494 9.56311 9.93645 9.18496 10.1398 8.92343L10.1953 8.86063L14.3893 4.66536H12C11.6318 4.66536 11.3333 4.36689 11.3333 3.9987C11.3333 3.63051 11.6318 3.33203 12 3.33203H16Z" fill="#017EFF"/>
</svg>
