<svg width="24" height="24" viewBox="0 0 24 24" fill="none" xmlns="http://www.w3.org/2000/svg">
<g id="Icons=Pencil">
<path id="Vector" d="M19.9993 8.1917C19.9999 8.08642 19.9797 7.98206 19.9399 7.8846C19.9001 7.78714 19.8415 7.69849 19.7673 7.62374L16.3756 4.232C16.3008 4.15786 16.2122 4.0992 16.1147 4.05939C16.0173 4.01958 15.9129 3.9994 15.8076 4.00001C15.7023 3.9994 15.598 4.01958 15.5005 4.05939C15.4031 4.0992 15.3144 4.15786 15.2397 4.232L12.9758 6.49583L4.23248 15.2392C4.15834 15.3139 4.09969 15.4026 4.05988 15.5C4.02007 15.5975 3.99989 15.7019 4.0005 15.8071V19.1989C4.0005 19.411 4.08478 19.6145 4.2348 19.7645C4.38482 19.9145 4.58828 19.9988 4.80044 19.9988H8.19219C8.30412 20.0049 8.41609 19.9874 8.52082 19.9474C8.62555 19.9075 8.72072 19.8459 8.80014 19.7668L17.4955 11.0235L19.7673 8.79966C19.8403 8.72213 19.8998 8.63289 19.9433 8.53567C19.951 8.47191 19.951 8.40745 19.9433 8.34369C19.9471 8.30645 19.9471 8.26893 19.9433 8.2317L19.9993 8.1917ZM7.86421 18.3989H5.60038V16.1351L13.5438 8.1917L15.8076 10.4555L7.86421 18.3989ZM16.9355 9.32762L14.6717 7.06378L15.8076 5.93587L18.0635 8.1917L16.9355 9.32762Z" />
</g>
</svg>
