<svg width="24" height="24" viewBox="0 0 24 24" fill="none" xmlns="http://www.w3.org/2000/svg">
<path d="M9.44643 4C9.29014 4 9.14025 4.06321 9.02974 4.17574C8.91923 4.28826 8.85714 4.44087 8.85714 4.6C8.85714 4.75913 8.91923 4.91174 9.02974 5.02426C9.14025 5.13679 9.29014 5.2 9.44643 5.2H9.64286V6.4H9.05357C8.37632 6.4 7.72681 6.67393 7.24792 7.16152C6.76904 7.64912 6.5 8.31044 6.5 9V16.2C6.5 16.7133 6.64923 17.2151 6.92887 17.6422C7.20852 18.0693 7.60607 18.4026 8.07143 18.6V19.4C8.07143 19.5591 8.13351 19.7117 8.24403 19.8243C8.35454 19.9368 8.50443 20 8.66071 20C8.817 20 8.96689 19.9368 9.0774 19.8243C9.18791 19.7117 9.25 19.5591 9.25 19.4V18.8H14.75V19.4C14.75 19.5591 14.8121 19.7117 14.9226 19.8243C15.0331 19.9368 15.183 20 15.3393 20C15.4956 20 15.6455 19.9368 15.756 19.8243C15.8665 19.7117 15.9286 19.5591 15.9286 19.4V18.6C16.3939 18.4026 16.7915 18.0693 17.0711 17.6422C17.3508 17.2151 17.5 16.7133 17.5 16.2V9C17.5 8.31044 17.231 7.64912 16.7521 7.16152C16.2732 6.67393 15.6237 6.4 14.9464 6.4H14.3571V5.2H14.5536C14.7099 5.2 14.8597 5.13679 14.9703 5.02426C15.0808 4.91174 15.1429 4.75913 15.1429 4.6C15.1429 4.44087 15.0808 4.28826 14.9703 4.17574C14.8597 4.06321 14.7099 4 14.5536 4H9.44643ZM13.1786 5.2V6.4H10.8214V5.2H13.1786ZM9.05357 7.6H14.9464C15.7054 7.6 16.3214 8.2272 16.3214 9V16.2C16.3214 16.5713 16.1766 16.9274 15.9187 17.1899C15.6608 17.4525 15.3111 17.6 14.9464 17.6H9.05357C8.6889 17.6 8.33916 17.4525 8.0813 17.1899C7.82344 16.9274 7.67857 16.5713 7.67857 16.2V9C7.67857 8.2272 8.29457 7.6 9.05357 7.6ZM8.85714 10.2C8.85714 10.0409 8.91923 9.88826 9.02974 9.77574C9.14025 9.66321 9.29014 9.6 9.44643 9.6H14.5536C14.7099 9.6 14.8597 9.66321 14.9703 9.77574C15.0808 9.88826 15.1429 10.0409 15.1429 10.2C15.1429 10.3591 15.0808 10.5117 14.9703 10.6243C14.8597 10.7368 14.7099 10.8 14.5536 10.8H9.44643C9.29014 10.8 9.14025 10.7368 9.02974 10.6243C8.91923 10.5117 8.85714 10.3591 8.85714 10.2Z"/>
</svg>
