<svg width="20" height="20" viewBox="0 0 20 20" fill="none" xmlns="http://www.w3.org/2000/svg">
<path d="M5.75 7.3763V2.41797H14.25V7.3763" stroke="#0D1835" stroke-width="1.78" stroke-linecap="round" stroke-linejoin="round"/>
<path d="M5.74984 13.75H4.33317C3.95745 13.75 3.59711 13.6007 3.33144 13.3351C3.06576 13.0694 2.9165 12.7091 2.9165 12.3333V8.79167C2.9165 8.41594 3.06576 8.05561 3.33144 7.78993C3.59711 7.52426 3.95745 7.375 4.33317 7.375H15.6665C16.0422 7.375 16.4026 7.52426 16.6682 7.78993C16.9339 8.05561 17.0832 8.41594 17.0832 8.79167V12.3333C17.0832 12.7091 16.9339 13.0694 16.6682 13.3351C16.4026 13.6007 16.0422 13.75 15.6665 13.75H14.2498" stroke="#0D1835" stroke-width="1.78" stroke-linecap="round" stroke-linejoin="round"/>
<path d="M14.25 10.918H5.75V16.5846H14.25V10.918Z" stroke="#0D1835" stroke-width="1.78" stroke-linecap="round" stroke-linejoin="round"/>
</svg>
