<svg width="20" height="20" viewBox="0 0 20 20" fill="none" xmlns="http://www.w3.org/2000/svg">
<path d="M13.9375 12.3794C14.4978 12.5074 14.8091 12.2514 14.8713 11.9954C14.9336 11.6114 14.6223 11.4194 14.3733 11.3554C13.6262 11.2274 12.5756 11.3554 12.1398 11.4194C12.6379 11.8674 13.2527 12.1874 13.9375 12.3794Z" fill="#0D1835"/>
<path d="M9.15928 4.14743C9.03477 4.14743 8.91026 4.21143 8.848 4.33943C8.66123 4.72343 8.59897 5.74743 9.09703 7.14743C9.34605 6.44343 9.47057 5.61943 9.53282 4.85143C9.53282 4.53143 9.47057 4.14743 9.15928 4.14743Z" fill="#0D1835"/>
<path d="M9.59508 9.50743C9.47057 9.89143 9.09703 10.9714 8.78574 11.5474C9.58995 11.2522 10.6062 11.0182 10.7096 11.0278C10.6671 10.9747 10.616 10.9125 10.559 10.8431C10.2778 10.5009 9.85177 9.9824 9.59508 9.50743Z" fill="#0D1835"/>
<path d="M4.50559 15.3154C5.00364 15.3154 5.81298 14.4194 6.67679 13.0194C5.25267 13.6514 4.25656 14.3554 4.1943 14.8674C4.13205 14.9954 4.1943 15.1234 4.25656 15.2514C4.31882 15.3154 4.44333 15.3154 4.50559 15.3154Z" fill="#0D1835"/>
<path fill-rule="evenodd" clip-rule="evenodd" d="M0.493066 2.47004C0 3.43774 0 4.70452 0 7.23809V12.7619C0 15.2955 0 16.5623 0.493066 17.53C0.926779 18.3812 1.61883 19.0732 2.47004 19.5069C3.43773 20 4.70451 20 7.23806 20H12.7619C15.2955 20 16.5623 20 17.53 19.5069C18.3812 19.0732 19.0732 18.3812 19.5069 17.53C20 16.5623 20 15.2955 20 12.7619V7.2381C20 4.70455 20 3.43773 19.5069 2.47004C19.0732 1.61883 18.3812 0.926779 17.53 0.493066C16.5623 0 15.2955 0 12.7619 0H7.2381C4.70452 0 3.43774 0 2.47004 0.493066C1.61883 0.926779 0.926779 1.61883 0.493066 2.47004ZM11.886 10.8149C12.7533 10.705 14.9017 10.433 15.7429 11.3554C15.992 11.6114 16.1087 12.0594 15.9453 12.3634C15.8285 12.6834 15.5173 13.0674 14.6457 13.0674C14.0231 13.0674 12.778 12.8834 11.4161 11.6034C10.2332 11.7954 9.05812 12.1794 8.31103 12.4354C7.37718 14.0994 6.06979 15.9474 4.77018 15.9474C4.45889 15.9474 4.14761 15.8834 3.89858 15.6274C3.64956 15.4354 3.52504 15.0514 3.5873 14.7314C3.77407 13.5794 5.94528 12.5634 6.94138 12.1794C7.68068 10.8434 8.30325 9.12343 8.67679 7.97143C7.99197 6.37943 7.8052 4.85143 8.241 4.08343C8.42777 3.76343 8.73905 3.57143 9.11259 3.57143C10.1009 3.57143 10.4745 4.52343 10.4745 5.48343C10.4745 6.50743 10.2254 7.58743 9.91415 8.54743C9.93949 8.58651 9.96862 8.63213 10.0014 8.6835C10.291 9.13696 10.8667 10.0386 11.6496 10.8434C11.7105 10.8371 11.7905 10.827 11.886 10.8149Z" fill="#0D1835"/>
</svg>
