<svg width="18" height="19" viewBox="0 0 18 19" fill="none" xmlns="http://www.w3.org/2000/svg">
<path d="M14.25 2.75H3.75C2.92157 2.75 2.25 3.42157 2.25 4.25V14.75C2.25 15.5784 2.92157 16.25 3.75 16.25H14.25C15.0784 16.25 15.75 15.5784 15.75 14.75V4.25C15.75 3.42157 15.0784 2.75 14.25 2.75Z" stroke="black" stroke-width="1.5" stroke-linecap="round" stroke-linejoin="round"/>
<path d="M6.375 8C6.99632 8 7.5 7.49632 7.5 6.875C7.5 6.25368 6.99632 5.75 6.375 5.75C5.75368 5.75 5.25 6.25368 5.25 6.875C5.25 7.49632 5.75368 8 6.375 8Z" stroke="black" stroke-width="1.5" stroke-linecap="round" stroke-linejoin="round"/>
<path d="M15.75 11.75L12 8L3.75 16.25" stroke="black" stroke-width="1.5" stroke-linecap="round" stroke-linejoin="round"/>
</svg>
