<svg width="24" height="24" viewBox="0 0 24 24" fill="none" xmlns="http://www.w3.org/2000/svg">
<g id="Icons=Wallet">
<path id="Vector" d="M20.5 16.6667V16.1667H20H15.6667C15.1804 16.1667 14.7141 15.9735 14.3703 15.6297C14.0265 15.2859 13.8333 14.8196 13.8333 14.3333C13.8333 13.8471 14.0265 13.3808 14.3703 13.037C14.7141 12.6932 15.1804 12.5 15.6667 12.5H20H20.5V12V8.66667V8.16667H20H4H3.5V8.66667V20V20.5H4H20H20.5V20V16.6667ZM15.0571 3.68765L14.7791 3.34012L14.4017 3.576L9.06833 6.90933L7.58994 7.83333H9.33333H17.3333H18.3736L17.7238 7.02099L15.0571 3.68765ZM15.6667 15.8333H16.3333C16.7312 15.8333 17.1127 15.6753 17.394 15.394C17.6753 15.1127 17.8333 14.7312 17.8333 14.3333C17.8333 13.9355 17.6753 13.554 17.394 13.2727C17.1127 12.9914 16.7312 12.8333 16.3333 12.8333H15.6667C15.2688 12.8333 14.8873 12.9914 14.606 13.2727C14.3247 13.554 14.1667 13.9355 14.1667 14.3333C14.1667 14.7312 14.3247 15.1127 14.606 15.394C14.8873 15.6753 15.2688 15.8333 15.6667 15.8333Z" stroke="#0D1835"/>
</g>
</svg>
