<svg width="24" height="24" viewBox="0 0 24 24" fill="black" xmlns="http://www.w3.org/2000/svg">
<g id="Icons=Heart">
<path id="Vector" d="M12.08 17.2112L12 17.2929L11.912 17.2112C8.112 13.688 5.6 11.3583 5.6 8.99591C5.6 7.36104 6.8 6.13488 8.4 6.13488C9.632 6.13488 10.832 6.95232 11.256 8.06403H12.744C13.168 6.95232 14.368 6.13488 15.6 6.13488C17.2 6.13488 18.4 7.36104 18.4 8.99591C18.4 11.3583 15.888 13.688 12.08 17.2112ZM15.6 4.5C14.208 4.5 12.872 5.16213 12 6.20027C11.128 5.16213 9.792 4.5 8.4 4.5C5.936 4.5 4 6.47003 4 8.99591C4 12.0777 6.72 14.6035 10.84 18.421L12 19.5L13.16 18.421C17.28 14.6035 20 12.0777 20 8.99591C20 6.47003 18.064 4.5 15.6 4.5Z" />
</g>
</svg>
