<svg width="24" height="24" viewBox="0 0 24 24" fill="none" xmlns="http://www.w3.org/2000/svg">
<g id="Icons=Building">
<path id="Building" d="M6 4V20H11.1429V16.8889H12.8571V20H18V4H6ZM7.71429 5.77778H9.42857V7.55556H7.71429V5.77778ZM11.1429 5.77778H12.8571V7.55556H11.1429V5.77778ZM14.5714 5.77778H16.2857V7.55556H14.5714V5.77778ZM7.71429 9.33333H9.42857V11.1111H7.71429V9.33333ZM11.1429 9.33333H12.8571V11.1111H11.1429V9.33333ZM14.5714 9.33333H16.2857V11.1111H14.5714V9.33333ZM7.71429 12.8889H9.42857V14.6667H7.71429V12.8889ZM11.1429 12.8889H12.8571V14.6667H11.1429V12.8889ZM14.5714 12.8889H16.2857V14.6667H14.5714V12.8889ZM7.71429 16.4444H9.42857V18.2222H7.71429V16.4444ZM14.5714 16.4444H16.2857V18.2222H14.5714V16.4444Z" />
</g>
</svg>
