<svg width="24" height="24" viewBox="0 0 24 24" fill="none" xmlns="http://www.w3.org/2000/svg">
<g id="Icons=Mark">
<g id="Group 1">
<circle id="Ellipse 14" cx="12" cy="12" r="4.5" stroke="#0D1835"/>
<circle id="Ellipse 15" cx="11.9999" cy="12" r="2.66667" />
<path id="Rectangle 206" d="M11.3333 4.66667C11.3333 4.29848 11.6317 4 11.9999 4V4C12.3681 4 12.6666 4.29848 12.6666 4.66667V8H11.3333V4.66667Z" />
<path id="Rectangle 208" d="M11.3333 16H12.6666V19.3333C12.6666 19.7015 12.3681 20 11.9999 20V20C11.6317 20 11.3333 19.7015 11.3333 19.3333V16Z" />
<path id="Rectangle 207" d="M16 11.3333H19.3333C19.7015 11.3333 20 11.6318 20 12V12C20 12.3682 19.7015 12.6667 19.3333 12.6667H16V11.3333Z" />
<path id="Rectangle 209" d="M4 12C4 11.6318 4.29848 11.3333 4.66667 11.3333H8V12.6667H4.66667C4.29848 12.6667 4 12.3682 4 12V12Z" />
</g>
</g>
</svg>
