<svg width="24" height="24" viewBox="0 0 24 24" fill="none" xmlns="http://www.w3.org/2000/svg">
<g id="Icons=Bell">
<path id="Vector" d="M12 20.0004C12.5304 20.0004 13.0391 19.7897 13.4142 19.4146C13.7893 19.0396 14 18.5309 14 18.0004H10C10 18.5309 10.2107 19.0396 10.5858 19.4146C10.9609 19.7897 11.4696 20.0004 12 20.0004ZM12 5.91843L11.203 6.07943C10.299 6.26363 9.48633 6.75454 8.90265 7.46905C8.31897 8.18357 8.0001 9.07782 8 10.0004C8 10.6284 7.866 12.1974 7.541 13.7424C7.381 14.5094 7.165 15.3084 6.878 16.0004H17.122C16.835 15.3084 16.62 14.5104 16.459 13.7424C16.134 12.1974 16 10.6284 16 10.0004C15.9997 9.07799 15.6807 8.18398 15.097 7.46967C14.5134 6.75535 13.7009 6.2646 12.797 6.08043L12 5.91843ZM18.22 16.0004C18.443 16.4474 18.701 16.8014 19 17.0004H5C5.299 16.8014 5.557 16.4474 5.78 16.0004C6.68 14.2004 7 10.8804 7 10.0004C7 7.58043 8.72 5.56043 11.005 5.09943C10.991 4.96039 11.0064 4.81996 11.05 4.68721C11.0937 4.55445 11.1647 4.43232 11.2584 4.32869C11.3522 4.22506 11.4666 4.14223 11.5943 4.08554C11.7221 4.02885 11.8603 3.99956 12 3.99956C12.1397 3.99956 12.2779 4.02885 12.4057 4.08554C12.5334 4.14223 12.6478 4.22506 12.7416 4.32869C12.8353 4.43232 12.9063 4.55445 12.95 4.68721C12.9936 4.81996 13.009 4.96039 12.995 5.09943C14.1253 5.32933 15.1414 5.94279 15.8712 6.83593C16.6011 7.72907 16.9999 8.84701 17 10.0004C17 10.8804 17.32 14.2004 18.22 16.0004Z"  stroke="#0D1835" stroke-width="0.5"/>
</g>
</svg>
