<svg width="24" height="24" viewBox="0 0 24 24" fill="none" xmlns="http://www.w3.org/2000/svg">
<path d="M16 18.25V16.75C16 15.9544 15.6839 15.1913 15.1213 14.6287C14.5587 14.0661 13.7956 13.75 13 13.75H7C6.20435 13.75 5.44129 14.0661 4.87868 14.6287C4.31607 15.1913 4 15.9544 4 16.75V18.25" stroke="#0D1835" stroke-width="1.78" stroke-linecap="round" stroke-linejoin="round"/>
<path d="M21.5 17V15.5C21.5 14.7044 21.1839 13.9413 20.6213 13.3787C20.0587 12.8161 19.2956 12.5 18.5 12.5H17" stroke="#0D1835" stroke-width="1.78" stroke-linecap="round" stroke-linejoin="round"/>
<path d="M10 10.75C11.6569 10.75 13 9.40685 13 7.75C13 6.09315 11.6569 4.75 10 4.75C8.34315 4.75 7 6.09315 7 7.75C7 9.40685 8.34315 10.75 10 10.75Z" stroke="#0D1835" stroke-width="1.78" stroke-linecap="round" stroke-linejoin="round"/>
<path d="M15 10.5C16.6569 10.5 18 9.15685 18 7.5C18 5.84315 16.6569 4.5 15 4.5" stroke="#0D1835" stroke-width="1.78" stroke-linecap="round" stroke-linejoin="round"/>
</svg>
