<svg width="20" height="20" viewBox="0 0 20 20" fill="none" stroke-width="2" stroke-linecap="round" stroke-linejoin="round" xmlns="http://www.w3.org/2000/svg">
<g id="Icons=lock, Property 1=Variant55">
<g id="lock">
<path id="Vector" d="M15.25 9.25H4.75C3.92157 9.25 3.25 9.92157 3.25 10.75V16C3.25 16.8284 3.92157 17.5 4.75 17.5H15.25C16.0784 17.5 16.75 16.8284 16.75 16V10.75C16.75 9.92157 16.0784 9.25 15.25 9.25Z" />
<path id="Vector_2" d="M6.25 9.25V6.25C6.25 5.25544 6.64509 4.30161 7.34835 3.59835C8.05161 2.89509 9.00544 2.5 10 2.5C10.9946 2.5 11.9484 2.89509 12.6517 3.59835C13.3549 4.30161 13.75 5.25544 13.75 6.25V9.25"/>
</g>
</g>
</svg>
