<svg width="24" height="24" viewBox="0 0 24 24" fill="none" xmlns="http://www.w3.org/2000/svg">
<g id="Icons=Image">
<path id="Vector" d="M4 5.5V18.5H20V5.5H4ZM5.14286 6.68182H18.8571V14.899L15.8394 11.7601L15.4286 11.3352L12.8394 14.0126L9.55371 10.5783L9.14286 10.1534L5.14286 14.2898V6.68182ZM16.5714 7.86364C16.2683 7.86364 15.9776 7.98815 15.7633 8.20978C15.549 8.43142 15.4286 8.73202 15.4286 9.04545C15.4286 9.35889 15.549 9.65949 15.7633 9.88113C15.9776 10.1028 16.2683 10.2273 16.5714 10.2273C16.8745 10.2273 17.1652 10.1028 17.3796 9.88113C17.5939 9.65949 17.7143 9.35889 17.7143 9.04545C17.7143 8.73202 17.5939 8.43142 17.3796 8.20978C17.1652 7.98815 16.8745 7.86364 16.5714 7.86364ZM9.14286 11.834L14.3931 17.3182H5.14286V15.9703L9.14286 11.834ZM15.4286 13.0158L18.8571 16.5612V17.3182H16.0177L13.6429 14.8435L15.4286 13.0158Z" />
</g>
</svg>
