<svg width="24" height="24" viewBox="0 0 24 24" fill="none" xmlns="http://www.w3.org/2000/svg">
<g id="Icons=Save">
<path id="Vector" d="M4 20V4H16.4444L20 7.55556V20H4ZM5.77778 18.2222H18.2222V8.31111L15.6889 5.77778H5.77778V18.2222ZM12 17.3333C12.7407 17.3333 13.3704 17.0741 13.8889 16.5556C14.4074 16.037 14.6667 15.4074 14.6667 14.6667C14.6667 13.9259 14.4074 13.2963 13.8889 12.7778C13.3704 12.2593 12.7407 12 12 12C11.2593 12 10.6296 12.2593 10.1111 12.7778C9.59259 13.2963 9.33333 13.9259 9.33333 14.6667C9.33333 15.4074 9.59259 16.037 10.1111 16.5556C10.6296 17.0741 11.2593 17.3333 12 17.3333ZM6.66667 10.2222H14.6667V6.66667H6.66667V10.2222Z" />
</g>
</svg>
