<svg width="24" height="24" viewBox="0 0 24 24" fill="none" xmlns="http://www.w3.org/2000/svg">
<g id="Icons=User-Circle">
<path id="Vector" d="M12 4C10.9494 4 9.90914 4.20693 8.93853 4.60896C7.96793 5.011 7.08601 5.60028 6.34315 6.34315C4.84285 7.84344 4 9.87827 4 12C4 14.1217 4.84285 16.1566 6.34315 17.6569C7.08601 18.3997 7.96793 18.989 8.93853 19.391C9.90914 19.7931 10.9494 20 12 20C14.1217 20 16.1566 19.1571 17.6569 17.6569C19.1571 16.1566 20 14.1217 20 12C20 10.9494 19.7931 9.90914 19.391 8.93853C18.989 7.96793 18.3997 7.08601 17.6569 6.34315C16.914 5.60028 16.0321 5.011 15.0615 4.60896C14.0909 4.20693 13.0506 4 12 4ZM8.056 17.024C8.4 16.304 10.496 15.6 12 15.6C13.504 15.6 15.6 16.304 15.944 17.024C14.8235 17.9168 13.4327 18.4021 12 18.4C10.512 18.4 9.144 17.888 8.056 17.024ZM17.088 15.864C15.944 14.472 13.168 14 12 14C10.832 14 8.056 14.472 6.912 15.864C6.06095 14.7557 5.59973 13.3974 5.6 12C5.6 8.472 8.472 5.6 12 5.6C15.528 5.6 18.4 8.472 18.4 12C18.4 13.456 17.904 14.8 17.088 15.864ZM12 7.2C10.448 7.2 9.2 8.448 9.2 10C9.2 11.552 10.448 12.8 12 12.8C13.552 12.8 14.8 11.552 14.8 10C14.8 8.448 13.552 7.2 12 7.2ZM12 11.2C11.6817 11.2 11.3765 11.0736 11.1515 10.8485C10.9264 10.6235 10.8 10.3183 10.8 10C10.8 9.68174 10.9264 9.37652 11.1515 9.15147C11.3765 8.92643 11.6817 8.8 12 8.8C12.3183 8.8 12.6235 8.92643 12.8485 9.15147C13.0736 9.37652 13.2 9.68174 13.2 10C13.2 10.3183 13.0736 10.6235 12.8485 10.8485C12.6235 11.0736 12.3183 11.2 12 11.2Z" />
</g>
</svg>
