<svg width="24" height="20" viewBox="0 0 24 20" fill="none" xmlns="http://www.w3.org/2000/svg">
<path d="M20.1133 6.8474C20.3757 6.58494 20.7317 6.4375 21.1029 6.4375C21.2866 6.4375 21.4686 6.4737 21.6384 6.54403C21.8082 6.61436 21.9625 6.71744 22.0924 6.8474C22.2224 6.97735 22.3255 7.13163 22.3958 7.30142C22.4661 7.47122 22.5023 7.6532 22.5023 7.83698C22.5023 8.02076 22.4661 8.20275 22.3958 8.37254C22.3255 8.54233 22.2224 8.69661 22.0924 8.82657L13.8459 17.0731L11.207 17.7328L11.8668 15.0939L20.1133 6.8474Z" stroke="#EEEEEE" stroke-width="1.31944" stroke-linecap="round" stroke-linejoin="round"/>
<path d="M8.83203 18.7083C8.83203 18.7083 1.70703 13.9583 1.70703 8.41666C1.70703 6.527 2.4577 4.71472 3.7939 3.37853C5.13009 2.04233 6.94236 1.29166 8.83203 1.29166C10.7217 1.29166 12.534 2.04233 13.8702 3.37853C14.5658 4.1343 15.5612 6.04166 15.1654 8.41666" stroke="#EEEEEE" stroke-width="1.58333" stroke-linecap="round" stroke-linejoin="round"/>
<path d="M8.83203 10.7917C10.1437 10.7917 11.207 9.72834 11.207 8.41666C11.207 7.10499 10.1437 6.04166 8.83203 6.04166C7.52035 6.04166 6.45703 7.10499 6.45703 8.41666C6.45703 9.72834 7.52035 10.7917 8.83203 10.7917Z" stroke="#EEEEEE" stroke-width="1.58333" stroke-linecap="round" stroke-linejoin="round"/>
</svg>
