<svg width="29" height="25" viewBox="0 0 29 25" fill="none" xmlns="http://www.w3.org/2000/svg">
<path d="M24.25 8.51777C24.5815 8.18625 25.0312 8 25.5 8C25.7321 8 25.962 8.04572 26.1765 8.13456C26.391 8.2234 26.5858 8.35361 26.75 8.51777C26.9142 8.68192 27.0444 8.8768 27.1332 9.09127C27.222 9.30575 27.2678 9.53562 27.2678 9.76777C27.2678 9.99991 27.222 10.2298 27.1332 10.4443C27.0444 10.6587 26.9142 10.8536 26.75 11.0178L16.3333 21.4344L13 22.2678L13.8333 18.9344L24.25 8.51777Z" stroke="#788398" stroke-width="1.66667" stroke-linecap="round" stroke-linejoin="round"/>
<path d="M10 23.5C10 23.5 1 17.5 1 10.5C1 8.11305 1.94821 5.82387 3.63604 4.13604C5.32387 2.44821 7.61305 1.5 10 1.5C12.3869 1.5 14.6761 2.44821 16.364 4.13604C17.2426 5.09069 18.5 7.5 18 10.5" stroke="#788398" stroke-width="2" stroke-linecap="round" stroke-linejoin="round"/>
<path d="M10 13.5C11.6569 13.5 13 12.1569 13 10.5C13 8.84315 11.6569 7.5 10 7.5C8.34315 7.5 7 8.84315 7 10.5C7 12.1569 8.34315 13.5 10 13.5Z" stroke="#788398" stroke-width="2" stroke-linecap="round" stroke-linejoin="round"/>
</svg>
