<svg width="24" height="24" viewBox="0 0 24 24" fill="none" xmlns="http://www.w3.org/2000/svg">
<g id="Icons=Eye">
<path id="Vector" d="M12 7.96667C13.3373 7.96218 14.6486 8.33831 15.7834 9.0518C16.9181 9.76529 17.8301 10.7872 18.4145 12C17.2145 14.4713 14.7636 16.0333 12 16.0333C9.23636 16.0333 6.78545 14.4713 5.58545 12C6.1699 10.7872 7.08191 9.76529 8.21664 9.0518C9.35136 8.33831 10.6627 7.96218 12 7.96667ZM12 6.5C8.36364 6.5 5.25818 8.78067 4 12C5.25818 15.2193 8.36364 17.5 12 17.5C15.6364 17.5 18.7418 15.2193 20 12C18.7418 8.78067 15.6364 6.5 12 6.5ZM12 10.1667C12.4822 10.1667 12.9447 10.3598 13.2856 10.7036C13.6266 11.0475 13.8182 11.5138 13.8182 12C13.8182 12.4862 13.6266 12.9525 13.2856 13.2964C12.9447 13.6402 12.4822 13.8333 12 13.8333C11.5178 13.8333 11.0553 13.6402 10.7144 13.2964C10.3734 12.9525 10.1818 12.4862 10.1818 12C10.1818 11.5138 10.3734 11.0475 10.7144 10.7036C11.0553 10.3598 11.5178 10.1667 12 10.1667ZM12 8.7C10.1964 8.7 8.72727 10.1813 8.72727 12C8.72727 13.8187 10.1964 15.3 12 15.3C13.8036 15.3 15.2727 13.8187 15.2727 12C15.2727 10.1813 13.8036 8.7 12 8.7Z" />
</g>
</svg>
