<svg width="24" height="24" viewBox="0 0 24 24" fill="none" xmlns="http://www.w3.org/2000/svg">
<g id="Icons=Users">
<path id="Vector" d="M9.64706 11.0714C10.2055 11.0714 10.7514 10.908 11.2157 10.602C11.6801 10.2959 12.042 9.86078 12.2557 9.35176C12.4694 8.84274 12.5253 8.28262 12.4163 7.74225C12.3074 7.20187 12.0385 6.70551 11.6436 6.31592C11.2487 5.92633 10.7456 5.66102 10.1979 5.55353C9.65019 5.44604 9.08247 5.50121 8.56654 5.71205C8.05061 5.9229 7.60963 6.27995 7.29938 6.73806C6.98913 7.19616 6.82353 7.73475 6.82353 8.28572C6.82353 9.02453 7.12101 9.73309 7.65052 10.2555C8.18004 10.7779 8.89821 11.0714 9.64706 11.0714ZM9.64706 7.35714C9.83321 7.35714 10.0152 7.4116 10.1699 7.51364C10.3247 7.61567 10.4454 7.76069 10.5166 7.93037C10.5878 8.10004 10.6065 8.28675 10.5702 8.46687C10.5338 8.647 10.4442 8.81245 10.3126 8.94231C10.1809 9.07218 10.0132 9.16062 9.83067 9.19644C9.6481 9.23227 9.45886 9.21388 9.28689 9.1436C9.11491 9.07332 8.96792 8.9543 8.8645 8.8016C8.76108 8.6489 8.70588 8.46937 8.70588 8.28572C8.70588 8.03944 8.80504 7.80326 8.98155 7.62912C9.15805 7.45498 9.39744 7.35714 9.64706 7.35714ZM13.5153 10.9414C14.0659 10.1624 14.3612 9.23547 14.3612 8.28572C14.3612 7.33596 14.0659 6.40904 13.5153 5.63C13.786 5.54403 14.0686 5.50017 14.3529 5.5C15.1018 5.5 15.82 5.7935 16.3495 6.31592C16.879 6.83834 17.1765 7.5469 17.1765 8.28572C17.1765 9.02453 16.879 9.73309 16.3495 10.2555C15.82 10.7779 15.1018 11.0714 14.3529 11.0714C14.0686 11.0713 13.786 11.0274 13.5153 10.9414ZM9.64706 12.9286C4 12.9286 4 16.6429 4 16.6429V18.5H15.2941V16.6429C15.2941 16.6429 15.2941 12.9286 9.64706 12.9286ZM5.88235 16.6429C5.88235 16.3736 6.18353 14.7857 9.64706 14.7857C12.9412 14.7857 13.3553 16.2343 13.4118 16.6429M20 16.6429V18.5H17.1765V16.6429C17.1545 15.9526 16.9933 15.2736 16.7025 14.6454C16.4116 14.0173 15.9968 13.4526 15.4824 12.9843C20 13.4393 20 16.6429 20 16.6429Z" />
</g>
</svg>
