<svg width="24" height="24" viewBox="0 0 24 24" fill="none" xmlns="http://www.w3.org/2000/svg">
<g id="Icons=Map">
<path id="Vector" d="M12 7.6C12.5683 7.6 13.1134 7.81071 13.5152 8.18579C13.9171 8.56086 14.1429 9.06957 14.1429 9.6C14.1429 9.86264 14.0874 10.1227 13.9797 10.3654C13.8721 10.608 13.7142 10.8285 13.5152 11.0142C13.3162 11.1999 13.08 11.3472 12.82 11.4478C12.5601 11.5483 12.2814 11.6 12 11.6C11.4317 11.6 10.8866 11.3893 10.4848 11.0142C10.0829 10.6391 9.85714 10.1304 9.85714 9.6C9.85714 9.06957 10.0829 8.56086 10.4848 8.18579C10.8866 7.81071 11.4317 7.6 12 7.6ZM12 4C13.5913 4 15.1174 4.59 16.2426 5.6402C17.3679 6.69041 18 8.11479 18 9.6C18 13.8 12 20 12 20C12 20 6 13.8 6 9.6C6 8.11479 6.63214 6.69041 7.75736 5.6402C8.88258 4.59 10.4087 4 12 4ZM12 5.6C10.8634 5.6 9.77327 6.02143 8.96954 6.77157C8.16582 7.52172 7.71429 8.53913 7.71429 9.6C7.71429 10.4 7.71429 12 12 17.368C16.2857 12 16.2857 10.4 16.2857 9.6C16.2857 8.53913 15.8342 7.52172 15.0305 6.77157C14.2267 6.02143 13.1366 5.6 12 5.6Z" />
</g>
</svg>
