<svg width="102" height="102" viewBox="0 0 102 102" fill="none" xmlns="http://www.w3.org/2000/svg">
  <path
    d="M68.2007 11.5679C66.5109 9.85512 64.2923 8.76408 61.9054 8.4736L61.8703 8.45782H61.7392L61.7385 8.4571C58.4465 8.05257 55.153 9.19229 52.8141 11.5456L3.22976 61.1942C0.851345 63.5008 -0.315939 66.7867 0.0738893 70.0789C0.0738893 70.127 0.0961031 70.1751 0.102553 70.2202C0.109002 70.2654 0.102553 70.259 0.102553 70.2748C0.102553 70.2905 0.121901 70.3164 0.128349 70.3393C0.425022 72.7185 1.51067 74.929 3.21047 76.6182L16.9476 90.3708C16.9476 90.3708 19.7051 93.128 23.2658 96.7079H4.17064C2.84064 96.7079 1.76288 97.7866 1.76288 99.1179C1.76288 100.449 2.84064 101.528 4.17064 101.528H96.9497C98.279 101.528 99.3575 100.449 99.3575 99.1179C99.3575 97.7866 98.279 96.7079 96.9497 96.7079H57.9761L97.9459 56.6955C99.9882 54.6528 101.135 51.8812 101.135 48.9915C101.135 46.1017 99.9882 43.3309 97.9459 41.2874L68.2007 11.5679ZM56.2198 14.9226C56.8705 14.2707 57.6659 13.7808 58.5408 13.4924L51.0611 56.2297H51.0603C50.9278 57.0366 50.5473 57.7818 49.9718 58.3628C49.3971 58.943 48.6554 59.3296 47.8501 59.4688L5.15241 66.9554V66.9562C5.45624 66.0761 5.96073 65.2792 6.62646 64.6293L56.2198 14.9226ZM51.1664 96.7082H43.0123V87.6823C43.0123 86.351 41.9345 85.2723 40.6045 85.2723C39.2745 85.2723 38.1967 86.351 38.1967 87.6823V96.7082H30.052C25.0086 91.6214 20.3536 86.9621 20.3536 86.9621L6.61643 73.2122C6.1965 72.7854 5.83963 72.3013 5.55731 71.7727L48.6842 64.212C50.4592 63.8978 52.0953 63.045 53.3686 61.7676C54.642 60.4909 55.4911 58.8527 55.8015 57.0753L63.3559 13.9139C63.8833 14.1994 64.3684 14.5573 64.797 14.9776L94.5505 44.7073C95.0944 45.2502 95.5301 45.8915 95.8346 46.5965H79.2597C77.9297 46.5965 76.8519 47.676 76.8519 49.0065C76.8519 50.3378 77.9297 51.4165 79.2597 51.4165H95.8152C95.5114 52.1187 95.0749 52.7556 94.531 53.2936L51.1664 96.7082Z"
    fill="#017EFF"
  />
  <path
    d="M7.02983 25.7527C8.35983 25.7527 9.4376 24.6732 9.4376 23.3427V3.47152C9.4376 2.141 8.35983 1.06152 7.02983 1.06152C5.70055 1.06152 4.62207 2.141 4.62207 3.47152V23.3427C4.62207 24.6732 5.70055 25.7527 7.02983 25.7527Z"
    fill="#017EFF"
  />
  <path
    d="M21.7408 15.4758C23.0701 15.4758 24.1485 14.3963 24.1485 13.0658V2.71212C24.1485 1.38088 23.0701 0.302124 21.7408 0.302124C20.4108 0.302124 19.333 1.38088 19.333 2.71212V13.0658C19.333 14.3963 20.4108 15.4758 21.7408 15.4758Z"
    fill="#017EFF"
  />
  <path
    d="M36.4439 8.55413C37.7739 8.55413 38.8517 7.47465 38.8517 6.14413V2.71212C38.8517 1.38088 37.7739 0.302124 36.4439 0.302124C35.1139 0.302124 34.0361 1.38088 34.0361 2.71212V6.15074C34.0397 7.47911 35.1168 8.55413 36.4439 8.55413Z"
    fill="#017EFF"
  />
</svg>