<svg width="24" height="24" viewBox="0 0 24 24" fill="none" xmlns="http://www.w3.org/2000/svg">
<g id="Icons=Erase">
<path id="Vector" fill-rule="evenodd" clip-rule="evenodd" d="M12.7781 4.17484C12.8335 4.11932 12.8993 4.07528 12.9717 4.04522C13.0441 4.01517 13.1218 3.9997 13.2002 3.9997C13.2786 3.9997 13.3562 4.01517 13.4286 4.04522C13.5011 4.07528 13.5668 4.11932 13.6222 4.17484L19.8255 10.3769C19.9372 10.4887 20 10.6403 20 10.7983C20 10.9564 19.9372 11.108 19.8255 11.2198L13.4875 17.5578L11.5704 19.4761C11.4043 19.6423 11.2071 19.7741 10.99 19.8641C10.773 19.954 10.5403 20.0003 10.3054 20.0003C10.0704 20.0003 9.8378 19.954 9.62075 19.8641C9.4037 19.7741 9.20651 19.6423 9.04043 19.4761L4.52301 14.9575C4.18811 14.6222 4 14.1676 4 13.6937C4 13.2198 4.18811 12.7653 4.52301 12.4299L6.44133 10.5104L12.7781 4.17484ZM13.2002 5.43861L7.7063 10.9325L13.0666 16.2928L18.5605 10.7989L13.2002 5.43861ZM12.2225 17.1357L6.8622 11.7766L5.36593 13.2717C5.31042 13.327 5.26637 13.3928 5.23632 13.4652C5.20627 13.5377 5.1908 13.6153 5.1908 13.6937C5.1908 13.7721 5.20627 13.8498 5.23632 13.9222C5.26637 13.9946 5.31042 14.0604 5.36593 14.1158L9.88453 18.6332C9.99627 18.7446 10.1476 18.8071 10.3054 18.8071C10.4632 18.8071 10.6145 18.7446 10.7263 18.6332L12.2225 17.1369V17.1357Z" />
</g>
</svg>
