<svg width="25" height="24" viewBox="0 0 25 24" fill="none" xmlns="http://www.w3.org/2000/svg">
<g clip-path="url(#clip0_4472_2728)">
<path d="M22 8.12109C22 8.12109 19.5 9.12109 18 11.1211C16.5 13.1211 17.5 13.1211 19 14.1211C20.5 15.1211 23 17.6211 21 19.1211C19 20.6211 13 19.7107 13 17.1211C13 14.5315 15.7764 14.8065 16.5 15.1211C17.5348 15.5709 18.5 17.1211 16.5 18.6211C14.8103 19.8883 12.5 20.1211 11 20.1211C9.5 20.1211 2 20.1211 2 20.1211" stroke="#F2F4F8" stroke-width="1.78" stroke-linecap="round" stroke-linejoin="round"/>
<path d="M15.5 3.62132C15.8978 3.2235 16.4374 3 17 3C17.2786 3 17.5544 3.05487 17.8118 3.16148C18.0692 3.26808 18.303 3.42434 18.5 3.62132C18.697 3.8183 18.8532 4.05216 18.9598 4.30953C19.0665 4.5669 19.1213 4.84274 19.1213 5.12132C19.1213 5.3999 19.0665 5.67574 18.9598 5.93311C18.8532 6.19048 18.697 6.42434 18.5 6.62132L6 19.1213L2 20.1213L3 16.1213L15.5 3.62132Z" stroke="#F2F4F8" stroke-width="1.78" stroke-linecap="round" stroke-linejoin="round"/>
</g>
<defs>
<clipPath id="clip0_4472_2728">
<rect width="24" height="24" fill="white" transform="translate(0.5)"/>
</clipPath>
</defs>
</svg>
