<svg width="24" height="24" viewBox="0 0 24 24" fill="none" xmlns="http://www.w3.org/2000/svg">
<g id="Icons=Redo">
<path id="redo" d="M9.9 19.5C8.28333 19.5 6.89567 18.975 5.737 17.925C4.57833 16.875 3.99933 15.5667 4 14C4 12.4333 4.57933 11.125 5.738 10.075C6.89667 9.025 8.284 8.5 9.9 8.5H16.2L13.6 5.9L15 4.5L20 9.5L15 14.5L13.6 13.1L16.2 10.5H9.9C8.85 10.5 7.93733 10.8333 7.162 11.5C6.38667 12.1667 5.99933 13 6 14C6 15 6.38767 15.8333 7.163 16.5C7.93833 17.1667 8.85067 17.5 9.9 17.5H17V19.5H9.9Z" />
</g>
</svg>
