<svg width="12" height="14" viewBox="0 0 12 14" fill="none" xmlns="http://www.w3.org/2000/svg">
<path d="M0.994766 0.519999H5.19477C6.51477 0.519999 7.67143 0.786666 8.66477 1.32C9.6581 1.84667 10.4314 2.59667 10.9848 3.57C11.5381 4.54333 11.8148 5.69333 11.8148 7.02C11.8148 8.33333 11.5381 9.47667 10.9848 10.45C10.4314 11.4167 9.6581 12.1667 8.66477 12.7C7.67143 13.2333 6.51477 13.5 5.19477 13.5H0.994766V0.519999ZM3.35477 2.66V11.38H5.19477C6.03477 11.38 6.7581 11.19 7.36477 10.81C7.9781 10.43 8.4481 9.91333 8.77477 9.26C9.1081 8.6 9.27477 7.85333 9.27477 7.02C9.27477 6.17333 9.1081 5.42333 8.77477 4.77C8.4481 4.11667 7.9781 3.60333 7.36477 3.23C6.7581 2.85 6.03477 2.66 5.19477 2.66H3.35477Z" fill="#0D1835"/>
</svg>
