<svg width="24" height="24" viewBox="0 0 24 24" fill="none" xmlns="http://www.w3.org/2000/svg">
<g id="Icons=Undo">
<path id="undo" d="M7 19.5V17.5H14.1C15.15 17.5 16.0623 17.1667 16.837 16.5C17.6123 15.8333 18 15 18 14C18 13 17.6123 12.1667 16.837 11.5C16.0623 10.8333 15.15 10.5 14.1 10.5H7.8L10.4 13.1L9 14.5L4 9.5L9 4.5L10.4 5.9L7.8 8.5H14.1C15.7167 8.5 17.1043 9.025 18.263 10.075C19.421 11.125 20 12.4333 20 14C20 15.5667 19.421 16.875 18.263 17.925C17.1043 18.975 15.7167 19.5 14.1 19.5H7Z" />
</g>
</svg>
