<svg width="24" height="24" viewBox="0 0 24 24" fill="none" xmlns="http://www.w3.org/2000/svg">
<g id="Icons=Interest">
<path id="Vector" d="M4 11.6053L8 4.5L12 11.6053H4ZM8 19.5C7.12 19.5 6.36667 19.1908 5.74 18.5724C5.11333 17.9539 4.8 17.2105 4.8 16.3421C4.8 15.4605 5.11333 14.7137 5.74 14.1016C6.36667 13.4895 7.12 13.1837 8 13.1842C8.88 13.1842 9.63333 13.4934 10.26 14.1118C10.8867 14.7303 11.2 15.4737 11.2 16.3421C11.2 17.2105 10.8867 17.9539 10.26 18.5724C9.63333 19.1908 8.88 19.5 8 19.5ZM8 17.9211C8.44 17.9211 8.8168 17.7663 9.1304 17.4568C9.444 17.1474 9.60053 16.7758 9.6 16.3421C9.6 15.9079 9.4432 15.5361 9.1296 15.2266C8.816 14.9171 8.43947 14.7626 8 14.7632C7.56 14.7632 7.1832 14.9179 6.8696 15.2274C6.556 15.5368 6.39947 15.9084 6.4 16.3421C6.4 16.7763 6.5568 17.1482 6.8704 17.4576C7.184 17.7671 7.56053 17.9216 8 17.9211ZM6.72 10.0263H9.28L8 7.75658L6.72 10.0263ZM12.8 19.5V13.1842H19.2V19.5H12.8ZM14.4 17.9211H17.6V14.7632H14.4V17.9211ZM16 11.6053C15.24 10.9737 14.6032 10.4408 14.0896 10.0066C13.576 9.57237 13.1661 9.19079 12.86 8.86184C12.5533 8.53289 12.3333 8.22368 12.2 7.93421C12.0667 7.64474 12 7.33553 12 7.00658C12 6.41447 12.2101 5.91447 12.6304 5.50658C13.0507 5.09868 13.5739 4.89474 14.2 4.89474C14.56 4.89474 14.8968 4.97711 15.2104 5.14184C15.524 5.30658 15.7872 5.53342 16 5.82237C16.2133 5.53289 16.4768 5.30605 16.7904 5.14184C17.104 4.97763 17.4405 4.89526 17.8 4.89474C18.4267 4.89474 18.9501 5.09868 19.3704 5.50658C19.7907 5.91447 20.0005 6.41447 20 7.00658C20 7.33553 19.9333 7.64474 19.8 7.93421C19.6667 8.22368 19.4467 8.53289 19.14 8.86184C18.8333 9.19079 18.4232 9.57237 17.9096 10.0066C17.396 10.4408 16.7595 10.9737 16 11.6053ZM16 9.53289C16.96 8.74342 17.6 8.18421 17.92 7.85526C18.24 7.52632 18.4 7.25658 18.4 7.04605C18.4 6.875 18.3499 6.73684 18.2496 6.63158C18.1493 6.52632 18.0128 6.47368 17.84 6.47368C17.7067 6.47368 17.5765 6.50974 17.4496 6.58184C17.3227 6.65395 17.1661 6.78237 16.98 6.96711L16 7.89474L15.02 6.96711C14.8333 6.78289 14.6765 6.65447 14.5496 6.58184C14.4227 6.50921 14.2928 6.47316 14.16 6.47368C13.9867 6.47368 13.8501 6.52632 13.7504 6.63158C13.6507 6.73684 13.6005 6.875 13.6 7.04605C13.6 7.25658 13.76 7.52632 14.08 7.85526C14.4 8.18421 15.04 8.74342 16 9.53289Z" />
</g>
</svg>
