<svg width="24" height="20" viewBox="0 0 24 20" fill="none" xmlns="http://www.w3.org/2000/svg">
<g id="Icons=Floor plan">
<g id="Group">
<path id="Vector" d="M1.21652 19.9992C0.848576 19.9646 0.567559 19.6547 0.569344 19.285V0.7142C0.569344 0.31985 0.889207 4.74499e-07 1.28354 4.74499e-07H19.1401C19.5345 4.74499e-07 19.8543 0.319863 19.8543 0.7142V8.24712L23.1912 11.2495C23.4872 11.5145 23.5121 11.9691 23.247 12.2649C22.9819 12.5608 22.5273 12.5857 22.2316 12.3207L18.6603 9.1066C18.5093 8.96959 18.4239 8.77478 18.4259 8.57101V6.42809H15.2116C15.1894 6.42908 15.167 6.42908 15.1448 6.42809C14.9552 6.41937 14.7771 6.33542 14.6493 6.19517C14.5218 6.05492 14.455 5.86982 14.4637 5.68025C14.4727 5.49092 14.5564 5.3128 14.6966 5.18501C14.8369 5.05746 15.0222 4.9907 15.2116 4.99967H18.4259V1.42836H10.569V4.64241C10.572 4.83572 10.4965 5.02206 10.3597 5.15858C10.223 5.29534 10.0369 5.37083 9.84355 5.36784C9.65397 5.36485 9.47361 5.28687 9.34158 5.15086C9.2098 5.01459 9.13731 4.83174 9.1403 4.64241V1.42836H1.99767V8.21385H9.85456C10.2492 8.21385 10.5688 8.53372 10.569 8.92805V11.1043L13.9059 14.1064C14.1353 14.2995 14.22 14.6151 14.1176 14.8969C14.0155 15.1789 13.748 15.3667 13.4483 15.3677C13.2627 15.3722 13.0823 15.3042 12.9461 15.1779L9.37475 11.9638C9.22378 11.8268 9.13859 11.632 9.14033 11.428V9.64231H1.9977V18.5706H9.14033V15.3565C9.13759 15.1655 9.21183 14.9811 9.34585 14.8449C9.48013 14.7088 9.66348 14.6321 9.85455 14.6321C10.0459 14.6321 10.229 14.7088 10.3632 14.8449C10.4975 14.9811 10.5715 15.1655 10.569 15.3565V18.5706H18.4259V14.6423C18.4232 14.451 18.4972 14.2669 18.6314 14.1306C18.7657 13.9943 18.9488 13.9179 19.1401 13.9179C19.3314 13.9179 19.5145 13.9943 19.6488 14.1306C19.7831 14.2669 19.8571 14.451 19.8543 14.6423V19.2851C19.8543 19.6794 19.5345 19.9993 19.1401 19.9993H1.28357C1.26115 20.0002 1.23894 20.0002 1.21652 19.9992Z" />
</g>
</g>
</svg>
