<svg width="24" height="24" viewBox="0 0 24 24" fill="none" stroke-width="2" stroke="none" xmlns="http://www.w3.org/2000/svg">
<g id="Icons=Chart-Pie">
<path id="Vector" d="M6.43142 17.5686C7.50699 18.6441 8.92776 19.2951 10.4333 19.4137V19.4806C8.91006 19.3619 7.47236 18.7038 6.38428 17.6157C5.2962 16.5276 4.63813 15.0899 4.51944 13.5667H4.58632C4.70486 15.0722 5.35585 16.493 6.43142 17.5686ZM11.4333 19.4805V19.4137C12.9389 19.2951 14.3597 18.6441 15.4352 17.5686C16.3829 16.621 17.0009 15.4054 17.2156 14.1H17.2831C17.2035 14.5891 17.0675 15.0686 16.877 15.5286C16.5537 16.3091 16.0798 17.0183 15.4824 17.6157C14.885 18.2131 14.1758 18.687 13.3953 19.0103C12.7691 19.2696 12.1069 19.428 11.4333 19.4805ZM4.58632 12.5667H4.51944C4.63813 11.0434 5.2962 9.60569 6.38428 8.51761C7.34442 7.55747 8.57681 6.93216 9.9 6.71684V6.78439C8.59458 6.99911 7.37902 7.61715 6.43142 8.56475C5.35585 9.64032 4.70486 11.0611 4.58632 12.5667ZM16.3 13.0667C16.3 13.0778 16.3 13.0889 16.2999 13.1H11.9667V13.0667V13.0333H16.3V13.0667ZM18.3667 13.0333H18.4333C18.4333 13.0444 18.4333 13.0556 18.4333 13.0667V13.1H18.3666C18.3666 13.0889 18.3667 13.0778 18.3667 13.0667V13.0333ZM10.9 12.0333V7.7001C10.9111 7.70003 10.9222 7.7 10.9333 7.7H10.9667V12.0333H10.9333H10.9ZM10.9667 5.63333H10.9333C10.9222 5.63333 10.9111 5.63336 10.9 5.63341V5.56667H10.9333C10.9444 5.56667 10.9556 5.56669 10.9667 5.56674V5.63333ZM19.4375 12.0333H19.3703C19.1409 10.1598 18.2923 8.4048 16.9437 7.05626C15.5952 5.70772 13.8402 4.8591 11.9667 4.62968V4.56252C13.8579 4.79228 15.6298 5.64806 16.9909 7.00912C18.3519 8.37018 19.2077 10.1421 19.4375 12.0333Z" />
</g>
</svg>
