<svg width="23" height="20" viewBox="0 0 23 20" fill="none" xmlns="http://www.w3.org/2000/svg">
<path d="M15.5 16.25V14.75C15.5 13.9544 15.1839 13.1913 14.6213 12.6287C14.0587 12.0661 13.2956 11.75 12.5 11.75H6.5C5.70435 11.75 4.94129 12.0661 4.37868 12.6287C3.81607 13.1913 3.5 13.9544 3.5 14.75V16.25" stroke="#0D1835" stroke-width="2" stroke-linecap="round" stroke-linejoin="round"/>
<path d="M21 15V13.5C21 12.7044 20.6839 11.9413 20.1213 11.3787C19.5587 10.8161 18.7956 10.5 18 10.5H16.5" stroke="#0D1835" stroke-width="2" stroke-linecap="round" stroke-linejoin="round"/>
<path d="M9.5 8.75C11.1569 8.75 12.5 7.40685 12.5 5.75C12.5 4.09315 11.1569 2.75 9.5 2.75C7.84315 2.75 6.5 4.09315 6.5 5.75C6.5 7.40685 7.84315 8.75 9.5 8.75Z" stroke="#0D1835" stroke-width="2" stroke-linecap="round" stroke-linejoin="round"/>
<path d="M14.5 8.5C16.1569 8.5 17.5 7.15685 17.5 5.5C17.5 3.84315 16.1569 2.5 14.5 2.5" stroke="#0D1835" stroke-width="2" stroke-linecap="round" stroke-linejoin="round"/>
</svg>
