<svg width="25" height="22" viewBox="0 0 25 22" fill="none" xmlns="http://www.w3.org/2000/svg">
<path d="M4.8872 21.7038C4.7149 21.8545 4.50344 21.9526 4.27764 21.9867C4.05184 22.0207 3.82107 21.9892 3.61243 21.896C3.40378 21.8027 3.22592 21.6514 3.09973 21.46C2.97354 21.2686 2.90425 21.0449 2.9 20.8153V18.1076C2.26348 18.1076 1.65303 17.8532 1.20294 17.4005C0.752856 16.9477 0.5 16.3336 0.5 15.6933V7.24304C0.5 6.60272 0.752856 5.98862 1.20294 5.53584C1.65303 5.08306 2.26348 4.82869 2.9 4.82869H16.1C16.7365 4.82869 17.347 5.08306 17.7971 5.53584C18.2471 5.98862 18.5 6.60272 18.5 7.24304V15.6933C18.5 16.3336 18.2471 16.9477 17.7971 17.4005C17.347 17.8532 16.7365 18.1076 16.1 18.1076H10.1036L4.8872 21.7038ZM19.7 12.0923C19.6962 12.2407 19.6962 12.3892 19.7 12.5377V12.091C19.706 11.9619 19.7072 10.3443 19.7048 7.23942C19.7038 6.27956 19.3241 5.35934 18.6491 4.68096C17.9741 4.00257 17.059 3.62152 16.1048 3.62152H6.5V2.41435C6.5 1.77402 6.75286 1.15992 7.20294 0.707146C7.65303 0.254368 8.26348 0 8.9 0L22.1 0C22.7365 0 23.347 0.254368 23.7971 0.707146C24.2471 1.15992 24.5 1.77402 24.5 2.41435V10.8646C24.5 11.5049 24.2471 12.119 23.7971 12.5718C23.347 13.0245 22.7365 13.2789 22.1 13.2789V15.9866C22.0958 16.2162 22.0265 16.4399 21.9003 16.6313C21.7741 16.8227 21.5962 16.974 21.3876 17.0673C21.1789 17.1605 20.9482 17.192 20.7224 17.158C20.4966 17.1239 20.2851 17.0258 20.1128 16.8751L19.7 16.5902V12.0923Z" fill="#0D1835"/>
</svg>
