<svg width="20" height="20" viewBox="0 0 20 20" fill="none" xmlns="http://www.w3.org/2000/svg">
<path d="M8.33301 10.4167C8.33301 9.72633 7.77336 9.16669 7.08301 9.16669C6.39265 9.16669 5.83301 9.72633 5.83301 10.4167C5.83301 11.107 6.39265 11.6667 7.08301 11.6667C7.77336 11.6667 8.33301 11.107 8.33301 10.4167Z" fill="#788398"/>
<path d="M13.333 10.4167C13.333 9.72633 12.7734 9.16669 12.083 9.16669C11.3927 9.16669 10.833 9.72633 10.833 10.4167C10.833 11.107 11.3927 11.6667 12.083 11.6667C12.7734 11.6667 13.333 11.107 13.333 10.4167Z" fill="#788398"/>
<path d="M8.33301 4.58331C8.33301 3.89296 7.77336 3.33331 7.08301 3.33331C6.39265 3.33331 5.83301 3.89296 5.83301 4.58331C5.83301 5.27367 6.39265 5.83331 7.08301 5.83331C7.77336 5.83331 8.33301 5.27367 8.33301 4.58331Z" fill="#788398"/>
<path d="M13.333 4.58331C13.333 3.89296 12.7734 3.33331 12.083 3.33331C11.3927 3.33331 10.833 3.89296 10.833 4.58331C10.833 5.27367 11.3927 5.83331 12.083 5.83331C12.7734 5.83331 13.333 5.27367 13.333 4.58331Z" fill="#788398"/>
<path d="M8.33301 16.25C8.33301 15.5596 7.77336 15 7.08301 15C6.39265 15 5.83301 15.5596 5.83301 16.25C5.83301 16.9404 6.39265 17.5 7.08301 17.5C7.77336 17.5 8.33301 16.9404 8.33301 16.25Z" fill="#788398"/>
<path d="M13.333 16.25C13.333 15.5596 12.7734 15 12.083 15C11.3927 15 10.833 15.5596 10.833 16.25C10.833 16.9404 11.3927 17.5 12.083 17.5C12.7734 17.5 13.333 16.9404 13.333 16.25Z" fill="#788398"/>
</svg>
