<svg width="122" height="109" viewBox="0 0 122 109" fill="none" xmlns="http://www.w3.org/2000/svg">
<path d="M38.145 68.5781H78.628C80.8638 68.5781 82.6763 66.7656 82.6763 64.5298V36.1918C82.6763 33.9559 80.8638 32.1435 78.628 32.1435L38.145 32.1435C35.9092 32.1435 34.0967 33.9559 34.0967 36.1918L34.0967 64.5298C34.0967 66.7656 35.9092 68.5781 38.145 68.5781Z" stroke="#017EFF" stroke-width="4.0483" stroke-linecap="round" stroke-linejoin="round"/>
<path d="M66.483 76.6758H50.2898" stroke="#017EFF" stroke-width="4.0483" stroke-linecap="round" stroke-linejoin="round"/>
<path d="M34.0967 58.457H82.6762" stroke="#017EFF" stroke-width="4.0483" stroke-linecap="round" stroke-linejoin="round"/>
<path d="M58.3865 68.5781V76.6747" stroke="#017EFF" stroke-width="4.0483" stroke-linecap="round" stroke-linejoin="round"/>
<path d="M60.754 49.4086L57.8567 53.6836L54.9594 49.4086L50.6135 46.5586L54.9594 43.7086L57.8567 39.4336L60.754 43.7086L65.0999 46.5586L60.754 49.4086Z" fill="#017EFF"/>
<g filter="url(#filter0_d_5841_49941)">
<rect x="69.6592" y="6.36328" width="42.0455" height="39.7727" rx="19.8864" fill="white"/>
<path d="M80.3912 22.5639H101.115L90.7529 16.1875L80.3912 22.5639Z" stroke="#34BE6D" stroke-width="2.83396" stroke-linecap="round" stroke-linejoin="round"/>
<path d="M83.5794 22.5625V30.533" stroke="#34BE6D" stroke-width="2.83396" stroke-linecap="round" stroke-linejoin="round"/>
<path d="M91.0172 23.0547V30.5364" stroke="#34BE6D" stroke-width="2.83396" stroke-linecap="round" stroke-linejoin="round"/>
<path d="M97.9264 22.5625V30.533" stroke="#34BE6D" stroke-width="2.83396" stroke-linecap="round" stroke-linejoin="round"/>
<path d="M81.1882 30.5352H100.317" stroke="#34BE6D" stroke-width="2.83396" stroke-linecap="round" stroke-linejoin="round"/>
<path d="M79.5942 34.5547H101.912" stroke="#34BE6D" stroke-width="2.83396" stroke-linecap="round" stroke-linejoin="round"/>
</g>
<g filter="url(#filter1_d_5841_49941)">
<rect x="10" y="60" width="34.0909" height="34.0909" rx="15.9091" fill="white"/>
<path d="M27.1281 87.3203C27.1281 87.3203 35.2563 83.2563 35.2563 77.1602V70.048L27.1281 67L19 70.048V77.1602C19 83.2563 27.1281 87.3203 27.1281 87.3203Z" stroke="#6FD79A" stroke-width="3.04805" stroke-linecap="round" stroke-linejoin="round"/>
</g>
<defs>
<filter id="filter0_d_5841_49941" x="59.6592" y="0.363281" width="62.0455" height="59.7734" filterUnits="userSpaceOnUse" color-interpolation-filters="sRGB">
<feFlood flood-opacity="0" result="BackgroundImageFix"/>
<feColorMatrix in="SourceAlpha" type="matrix" values="0 0 0 0 0 0 0 0 0 0 0 0 0 0 0 0 0 0 127 0" result="hardAlpha"/>
<feOffset dy="4"/>
<feGaussianBlur stdDeviation="5"/>
<feComposite in2="hardAlpha" operator="out"/>
<feColorMatrix type="matrix" values="0 0 0 0 0.0509804 0 0 0 0 0.0941176 0 0 0 0 0.207843 0 0 0 0.1 0"/>
<feBlend mode="normal" in2="BackgroundImageFix" result="effect1_dropShadow_5841_49941"/>
<feBlend mode="normal" in="SourceGraphic" in2="effect1_dropShadow_5841_49941" result="shape"/>
</filter>
<filter id="filter1_d_5841_49941" x="0" y="54" width="54.0909" height="54.0898" filterUnits="userSpaceOnUse" color-interpolation-filters="sRGB">
<feFlood flood-opacity="0" result="BackgroundImageFix"/>
<feColorMatrix in="SourceAlpha" type="matrix" values="0 0 0 0 0 0 0 0 0 0 0 0 0 0 0 0 0 0 127 0" result="hardAlpha"/>
<feOffset dy="4"/>
<feGaussianBlur stdDeviation="5"/>
<feComposite in2="hardAlpha" operator="out"/>
<feColorMatrix type="matrix" values="0 0 0 0 0.0509804 0 0 0 0 0.0941176 0 0 0 0 0.207843 0 0 0 0.1 0"/>
<feBlend mode="normal" in2="BackgroundImageFix" result="effect1_dropShadow_5841_49941"/>
<feBlend mode="normal" in="SourceGraphic" in2="effect1_dropShadow_5841_49941" result="shape"/>
</filter>
</defs>
</svg>
