<svg width="16" height="14" viewBox="0 0 16 14" fill="none" xmlns="http://www.w3.org/2000/svg">
<path d="M14.6287 5.43583L10.259 4.84035L8.30559 1.1271C8.25224 1.02543 8.16447 0.94313 8.05604 0.893104C7.78412 0.767231 7.45368 0.872125 7.31772 1.1271L5.36434 4.84035L0.99463 5.43583C0.874158 5.45197 0.764012 5.50522 0.679681 5.58591C0.577729 5.68417 0.52155 5.81635 0.523486 5.95343C0.525422 6.09051 0.585316 6.22125 0.690007 6.31694L3.85155 9.20718L3.10462 13.2884C3.08711 13.3833 3.09831 13.481 3.13696 13.5702C3.17562 13.6595 3.24017 13.7368 3.32331 13.7934C3.40645 13.8501 3.50484 13.8837 3.60734 13.8906C3.70983 13.8974 3.81232 13.8772 3.90318 13.8322L7.81166 11.9054L11.7201 13.8322C11.8268 13.8855 11.9508 13.9032 12.0695 13.8838C12.369 13.8354 12.5703 13.5692 12.5187 13.2884L11.7718 9.20718L14.9333 6.31694C15.0194 6.23787 15.0762 6.13459 15.0934 6.02162C15.1398 5.73922 14.9299 5.47779 14.6287 5.43583Z" fill="#F7CA5C"/>
</svg>
