<svg width="382" height="800" viewBox="0 0 382 800" fill="none" xmlns="http://www.w3.org/2000/svg">
<path opacity="0.3" fill-rule="evenodd" clip-rule="evenodd" d="M434.76 -214L580.56 -214V-69.2841H725.04V75.1021H869.85V219.818H1014V365.33L868.667 510.568H724.38V654.761L579.047 800H433.44V655.284H288.96L288.96 510.898H144.48V366.182H0L6.37029e-06 220.477H145.14L145.14 75.4317L289.62 75.4317L289.62 -68.9545H434.76V-214ZM436.079 -212.681V-67.6359H290.94L290.939 75.4317L434.68 75.4317L579.24 -69.0345V-212.681L436.079 -212.681ZM580.56 -67.9655V77.08H435.42V220.148H579.16L723.72 75.6814V-67.9655L580.56 -67.9655ZM724.38 75.7614V75.9545L724.573 75.7614H724.38ZM436.216 75.7614H579.24V-67.1697L436.216 75.7614ZM434.76 76.091V76.2841L434.953 76.091H434.76ZM725.37 76.4207V221.466H580.23V364.534H723.97L868.2 220.397V219.818H868.53V76.4207H725.37ZM146.459 76.7503L146.459 221.796H1.31946L1.31945 364.863H145.06L289.62 220.397L289.62 76.7503H146.459ZM290.939 76.7503L290.94 220.148H434.1V76.7503H290.939ZM581.026 220.148H724.05V77.2165L581.026 220.148ZM869.52 221.137V366.182H724.38V509.25H868.12L1012.68 364.783V221.137H869.52ZM290.94 221.466V366.512H145.8V509.579H289.54L434.1 365.113V221.466H290.94ZM435.42 221.466V364.534H578.91V221.466H435.42ZM146.596 365.193L289.62 222.262V365.193H146.596ZM725.506 364.863H868.2V222.262L725.506 364.863ZM723.72 365.193V365.523H723.913L724.243 365.193H723.72ZM145.14 365.523V365.716L145.333 365.523H145.14ZM435.42 365.852V510.898H290.28V653.966H434.02L578.58 509.499V365.852H435.42ZM579.9 365.852V509.25H723.06V365.852H579.9ZM291.406 509.579H434.1V366.978L291.406 509.579ZM579.9 510.568V655.614H434.76V798.681H578.5L723.06 654.215V510.568H579.9ZM435.556 654.295H578.58V511.364L435.556 654.295ZM434.1 654.625V654.818L434.293 654.625H434.1Z" fill="#EEB93E"/>
</svg>
