<svg width="661" height="360" viewBox="0 0 661 360" fill="none" xmlns="http://www.w3.org/2000/svg">
<path opacity="0.3" fill-rule="evenodd" clip-rule="evenodd" d="M81.7599 0L227.56 6.36615e-06V144.716H372.04V289.102H516.85V433.818H661V579.33L515.667 724.568H371.38V868.761L226.047 1014H80.4405V869.284H-64.0397L-64.0397 724.898H-208.52V580.182H-353L-353 434.477H-207.86L-207.86 289.432L-63.38 289.432L-63.3799 145.046H81.7599V0ZM83.0794 1.3186V146.364H-62.0605L-62.0605 289.432L81.6799 289.432L226.24 144.966V1.3186L83.0794 1.3186ZM227.56 146.034V291.08H82.4196V434.148H226.16L370.72 289.681V146.034L227.56 146.034ZM371.38 289.761V289.954L371.573 289.761H371.38ZM83.216 289.761H226.24V146.83L83.216 289.761ZM81.7599 290.091V290.284L81.9531 290.091H81.7599ZM372.37 290.421V435.466H227.23V578.534H370.97L515.2 434.397V433.818H515.53V290.421H372.37ZM-206.541 290.75L-206.541 435.796H-351.681L-351.681 578.863H-207.94L-63.3799 434.397L-63.38 290.75H-206.541ZM-62.0605 290.75L-62.0605 434.148H81.1002V290.75H-62.0605ZM228.026 434.148H371.05V291.216L228.026 434.148ZM516.52 435.137V580.182H371.38V723.25H515.12L659.681 578.783V435.137H516.52ZM-62.0605 435.466V580.512H-207.2V723.579H-63.46L81.1002 579.113V435.466H-62.0605ZM82.4196 435.466V578.534H225.91V435.466H82.4196ZM-206.404 579.193L-63.3799 436.262V579.193H-206.404ZM372.506 578.863H515.2V436.262L372.506 578.863ZM370.72 579.193V579.523H370.913L371.243 579.193H370.72ZM-207.86 579.523V579.716L-207.667 579.523H-207.86ZM82.4196 579.852V724.898H-62.7202V867.966H81.0201L225.58 723.499V579.852H82.4196ZM226.9 579.852V723.25H370.06V579.852H226.9ZM-61.5941 723.579H81.1002V580.978L-61.5941 723.579ZM226.9 724.568V869.614H81.7599V1012.68H225.5L370.06 868.215V724.568H226.9ZM82.5563 868.295H225.58V725.364L82.5563 868.295ZM81.1002 868.625V868.818L81.2934 868.625H81.1002Z" fill="#017EFF"/>
</svg>
