<svg width="396" height="295" viewBox="0 0 396 295" fill="none" xmlns="http://www.w3.org/2000/svg">
<rect y="295" width="15" height="348" transform="rotate(-90 0 295)" fill="#CDD6EC"/>
<rect x="30" y="15" width="15" height="121" transform="rotate(-90 30 15)" fill="#CDD6EC"/>
<rect x="276" y="15" width="15" height="105" transform="rotate(-90 276 15)" fill="#CDD6EC"/>
<rect x="347" y="163" width="15" height="34" transform="rotate(-90 347 163)" fill="#CDD6EC"/>
<rect x="136.102" y="69" width="14.9299" height="154.898" transform="rotate(-90 136.102 69)" fill="#CDD6EC"/>
<rect x="136" y="69" width="54" height="15" transform="rotate(-90 136 69)" fill="#CDD6EC"/>
<rect x="276" y="69" width="54" height="15" transform="rotate(-90 276 69)" fill="#CDD6EC"/>
<rect x="136" y="280" width="211" height="155" transform="rotate(-90 136 280)" fill="#FAFAFA"/>
<rect x="346" y="295" width="147" height="15" transform="rotate(-90 346 295)" fill="#CDD6EC"/>
<rect x="381" y="163" width="163" height="15" transform="rotate(-90 381 163)" fill="#CDD6EC"/>
<rect x="82.5625" y="280.437" width="172.875" height="53.875" transform="rotate(-90 82.5625 280.437)" fill="#FAFAFA" stroke="#CDD6EC" stroke-width="0.874974"/>
<rect x="15" y="280" width="132" height="67" transform="rotate(-90 15 280)" fill="#FAFAFA"/>
<rect x="290.563" y="280.437" width="132.875" height="55.875" transform="rotate(-90 290.563 280.437)" fill="#FAFAFA" stroke="#CDD6EC" stroke-width="0.874974"/>
<rect x="32.5625" y="133.437" width="118.875" height="103.875" transform="rotate(-90 32.5625 133.437)" fill="#FAFAFA" stroke="#CDD6EC" stroke-width="0.874974"/>
<rect x="290.563" y="148.437" width="133.875" height="90.875" transform="rotate(-90 290.563 148.437)" fill="#FAFAFA" stroke="#CDD6EC" stroke-width="0.874974"/>
<rect x="15" y="148" width="15" height="67" transform="rotate(-90 15 148)" fill="#CDD6EC"/>
<rect x="68" y="171" width="38" height="15" transform="rotate(-90 68 171)" fill="#CDD6EC"/>
<rect x="68" y="287" width="34" height="15" transform="rotate(-90 68 287)" fill="#CDD6EC"/>
<rect x="68.5" y="252.5" width="81" height="14" transform="rotate(-90 68.5 252.5)" stroke="#CDD6EC"/>
<rect y="280" width="147" height="15" transform="rotate(-90 0 280)" fill="#CDD6EC"/>
<rect x="23" y="148" width="148" height="15" transform="rotate(-90 23 148)" fill="#CDD6EC"/>
</svg>
